<svg xmlns="http://www.w3.org/2000/svg" width="980" height="420" viewBox="0 0 980 420">
<rect width="100%" height="100%" fill="#ffffff"/>
<text x="490.0" y="28" text-anchor="middle" font-family="sans-serif" font-size="18">Stats Timeseries</text>
<line x1="80" y1="48" x2="80" y2="356" stroke="#222"/>
<line x1="80" y1="356" x2="840" y2="356" stroke="#222"/>
<line x1="80" y1="356.0" x2="840" y2="356.0" stroke="#e5e7eb"/>
<text x="72" y="360.0" text-anchor="end" font-family="monospace" font-size="11">0</text>
<line x1="80" y1="279.0" x2="840" y2="279.0" stroke="#e5e7eb"/>
<text x="72" y="283.0" text-anchor="end" font-family="monospace" font-size="11">208842</text>
<line x1="80" y1="202.0" x2="840" y2="202.0" stroke="#e5e7eb"/>
<text x="72" y="206.0" text-anchor="end" font-family="monospace" font-size="11">417684</text>
<line x1="80" y1="125.0" x2="840" y2="125.0" stroke="#e5e7eb"/>
<text x="72" y="129.0" text-anchor="end" font-family="monospace" font-size="11">626525</text>
<line x1="80" y1="48.0" x2="840" y2="48.0" stroke="#e5e7eb"/>
<text x="72" y="52.0" text-anchor="end" font-family="monospace" font-size="11">835367</text>
<polyline fill="none" stroke="#2563eb" stroke-width="2" points="80.0,356.0 94.3,356.0 108.7,356.0 123.0,356.0 137.4,356.0 151.7,346.9 166.0,268.5 180.4,185.2 194.7,106.1 209.1,48.0 223.4,48.0 237.7,48.0 252.1,48.0 266.4,48.0 280.8,48.0 295.1,356.0 309.4,356.0 323.8,356.0 338.1,356.0 352.5,356.0 366.8,356.0 381.1,356.0 395.5,356.0 409.8,356.0 424.2,356.0 438.5,356.0 452.8,356.0 467.2,356.0 481.5,356.0 495.8,356.0 510.2,356.0 524.5,356.0 538.9,356.0 553.2,356.0 567.5,356.0 581.9,356.0 596.2,356.0 610.6,356.0 624.9,356.0 639.2,356.0 653.6,356.0 667.9,356.0 682.3,356.0 696.6,356.0 710.9,356.0 725.3,356.0 739.6,356.0 754.0,356.0 768.3,356.0 782.6,356.0 797.0,356.0 811.3,356.0 825.7,356.0 840.0,356.0"/>
<rect x="858" y="48" width="12" height="12" fill="#2563eb"/>
<text x="876" y="59" font-family="sans-serif" font-size="12">protected_drop</text>
<polyline fill="none" stroke="#dc2626" stroke-width="2" points="80.0,356.0 94.3,356.0 108.7,356.0 123.0,356.0 137.4,356.0 151.7,356.0 166.0,356.0 180.4,356.0 194.7,356.0 209.1,356.0 223.4,356.0 237.7,356.0 252.1,356.0 266.4,356.0 280.8,356.0 295.1,356.0 309.4,356.0 323.8,329.6 338.1,259.3 352.5,183.5 366.8,108.6 381.1,74.1 395.5,74.1 409.8,74.1 424.2,74.1 438.5,74.1 452.8,74.1 467.2,74.1 481.5,74.1 495.8,74.1 510.2,74.1 524.5,74.1 538.9,356.0 553.2,356.0 567.5,356.0 581.9,340.5 596.2,294.3 610.6,222.4 624.9,148.8 639.2,102.6 653.6,356.0 667.9,356.0 682.3,356.0 696.6,356.0 710.9,356.0 725.3,356.0 739.6,356.0 754.0,356.0 768.3,356.0 782.6,356.0 797.0,356.0 811.3,356.0 825.7,356.0 840.0,356.0"/>
<rect x="858" y="70" width="12" height="12" fill="#dc2626"/>
<text x="876" y="81" font-family="sans-serif" font-size="12">protected_pass</text>
<polyline fill="none" stroke="#059669" stroke-width="2" points="80.0,356.0 94.3,356.0 108.7,356.0 123.0,356.0 137.4,356.0 151.7,356.0 166.0,356.0 180.4,356.0 194.7,356.0 209.1,356.0 223.4,346.7 237.7,343.9 252.1,343.9 266.4,343.9 280.8,343.9 295.1,356.0 309.4,356.0 323.8,356.0 338.1,356.0 352.5,356.0 366.8,356.0 381.1,356.0 395.5,356.0 409.8,356.0 424.2,356.0 438.5,356.0 452.8,356.0 467.2,355.9 481.5,355.9 495.8,355.9 510.2,355.9 524.5,355.9 538.9,356.0 553.2,356.0 567.5,356.0 581.9,356.0 596.2,356.0 610.6,356.0 624.9,356.0 639.2,356.0 653.6,356.0 667.9,356.0 682.3,344.9 696.6,315.0 710.9,283.9 725.3,253.2 739.6,241.9 754.0,356.0 768.3,356.0 782.6,339.2 797.0,313.0 811.3,285.2 825.7,256.2 840.0,250.3"/>
<rect x="858" y="92" width="12" height="12" fill="#059669"/>
<text x="876" y="103" font-family="sans-serif" font-size="12">knock_seen</text>
<polyline fill="none" stroke="#d97706" stroke-width="2" points="80.0,356.0 94.3,356.0 108.7,356.0 123.0,356.0 137.4,356.0 151.7,356.0 166.0,356.0 180.4,356.0 194.7,356.0 209.1,356.0 223.4,356.0 237.7,293.3 252.1,217.0 266.4,142.3 280.8,98.0 295.1,356.0 309.4,356.0 323.8,356.0 338.1,356.0 352.5,356.0 366.8,356.0 381.1,356.0 395.5,356.0 409.8,356.0 424.2,356.0 438.5,356.0 452.8,356.0 467.2,327.1 481.5,276.5 495.8,217.8 510.2,168.3 524.5,155.5 538.9,356.0 553.2,356.0 567.5,356.0 581.9,356.0 596.2,356.0 610.6,356.0 624.9,356.0 639.2,356.0 653.6,356.0 667.9,356.0 682.3,356.0 696.6,356.0 710.9,356.0 725.3,356.0 739.6,356.0 754.0,356.0 768.3,356.0 782.6,356.0 797.0,356.0 811.3,356.0 825.7,356.0 840.0,356.0"/>
<rect x="858" y="114" width="12" height="12" fill="#d97706"/>
<text x="876" y="125" font-family="sans-serif" font-size="12">knock_rate_drop</text>
</svg>
