<svg xmlns="http://www.w3.org/2000/svg" width="980" height="420" viewBox="0 0 980 420">
<rect width="100%" height="100%" fill="#ffffff"/>
<text x="490.0" y="28" text-anchor="middle" font-family="sans-serif" font-size="18">XDP Counter Deltas</text>
<line x1="80" y1="48" x2="80" y2="340" stroke="#222"/>
<line x1="80" y1="340" x2="956" y2="340" stroke="#222"/>
<text x="18" y="194.0" transform="rotate(-90 18 194.0)" text-anchor="middle" font-family="sans-serif" font-size="12">count</text>
<line x1="80" y1="340.0" x2="956" y2="340.0" stroke="#e5e7eb"/>
<text x="72" y="344.0" text-anchor="end" font-family="monospace" font-size="11">0</text>
<line x1="80" y1="267.0" x2="956" y2="267.0" stroke="#e5e7eb"/>
<text x="72" y="271.0" text-anchor="end" font-family="monospace" font-size="11">153494</text>
<line x1="80" y1="194.0" x2="956" y2="194.0" stroke="#e5e7eb"/>
<text x="72" y="198.0" text-anchor="end" font-family="monospace" font-size="11">306987</text>
<line x1="80" y1="121.0" x2="956" y2="121.0" stroke="#e5e7eb"/>
<text x="72" y="125.0" text-anchor="end" font-family="monospace" font-size="11">460480</text>
<line x1="80" y1="48.0" x2="956" y2="48.0" stroke="#e5e7eb"/>
<text x="72" y="52.0" text-anchor="end" font-family="monospace" font-size="11">613974</text>
<rect x="89.3" y="48.0" width="39.7" height="292.0" fill="#2563eb"/>
<text x="109.2" y="43.0" text-anchor="middle" font-family="monospace" font-size="10">613974</text>
<text x="109.2" y="358" text-anchor="end" transform="rotate(-35 109.2 358)" font-family="sans-serif" font-size="11">protected_unauthorized_drop:protected_drop</text>
<rect x="147.7" y="73.2" width="39.7" height="266.8" fill="#2563eb"/>
<text x="167.6" y="68.2" text-anchor="middle" font-family="monospace" font-size="10">560911</text>
<text x="167.6" y="358" text-anchor="end" transform="rotate(-35 167.6 358)" font-family="sans-serif" font-size="11">knock_invalid_user_or_key:knock_rate_drop</text>
<rect x="206.1" y="65.8" width="39.7" height="274.2" fill="#2563eb"/>
<text x="226.0" y="60.8" text-anchor="middle" font-family="monospace" font-size="10">576604</text>
<text x="226.0" y="358" text-anchor="end" transform="rotate(-35 226.0 358)" font-family="sans-serif" font-size="11">authorized_protected_pass:protected_pass</text>
<rect x="264.5" y="340.0" width="39.7" height="0.0" fill="#2563eb"/>
<text x="284.4" y="335.0" text-anchor="middle" font-family="monospace" font-size="10">60</text>
<text x="284.4" y="358" text-anchor="end" transform="rotate(-35 284.4 358)" font-family="sans-serif" font-size="11">replay_drop:knock_seen</text>
<rect x="322.9" y="340.0" width="39.7" height="0.0" fill="#2563eb"/>
<text x="342.8" y="335.0" text-anchor="middle" font-family="monospace" font-size="10">60</text>
<text x="342.8" y="358" text-anchor="end" transform="rotate(-35 342.8 358)" font-family="sans-serif" font-size="11">replay_drop:replay_drop</text>
<rect x="381.3" y="147.9" width="39.7" height="192.1" fill="#2563eb"/>
<text x="401.2" y="142.9" text-anchor="middle" font-family="monospace" font-size="10">403978</text>
<text x="401.2" y="358" text-anchor="end" transform="rotate(-35 401.2 358)" font-family="sans-serif" font-size="11">source_rate_limit:knock_rate_drop</text>
<rect x="439.7" y="78.4" width="39.7" height="261.6" fill="#2563eb"/>
<text x="459.6" y="73.4" text-anchor="middle" font-family="monospace" font-size="10">549952</text>
<text x="459.6" y="358" text-anchor="end" transform="rotate(-35 459.6 358)" font-family="sans-serif" font-size="11">active_session_pressure_32:protected_pass</text>
<rect x="498.1" y="227.4" width="39.7" height="112.6" fill="#2563eb"/>
<text x="518.0" y="222.4" text-anchor="middle" font-family="monospace" font-size="10">236863</text>
<text x="518.0" y="358" text-anchor="end" transform="rotate(-35 518.0 358)" font-family="sans-serif" font-size="11">user_scale_128:knock_seen</text>
<rect x="556.5" y="338.1" width="39.7" height="1.9" fill="#2563eb"/>
<text x="576.4" y="333.1" text-anchor="middle" font-family="monospace" font-size="10">4096</text>
<text x="576.4" y="358" text-anchor="end" transform="rotate(-35 576.4 358)" font-family="sans-serif" font-size="11">user_scale_128:knock_valid</text>
<rect x="614.9" y="340.0" width="39.7" height="0.0" fill="#2563eb"/>
<text x="634.8" y="335.0" text-anchor="middle" font-family="monospace" font-size="10">64</text>
<text x="634.8" y="358" text-anchor="end" transform="rotate(-35 634.8 358)" font-family="sans-serif" font-size="11">user_scale_128:replay_drop</text>
<rect x="673.3" y="229.3" width="39.7" height="110.7" fill="#2563eb"/>
<text x="693.2" y="224.3" text-anchor="middle" font-family="monospace" font-size="10">232703</text>
<text x="693.2" y="358" text-anchor="end" transform="rotate(-35 693.2 358)" font-family="sans-serif" font-size="11">user_scale_128:map_update_fail</text>
<rect x="731.7" y="238.5" width="39.7" height="101.5" fill="#2563eb"/>
<text x="751.6" y="233.5" text-anchor="middle" font-family="monospace" font-size="10">213399</text>
<text x="751.6" y="358" text-anchor="end" transform="rotate(-35 751.6 358)" font-family="sans-serif" font-size="11">user_scale_1024:knock_seen</text>
<rect x="790.1" y="338.1" width="39.7" height="1.9" fill="#2563eb"/>
<text x="810.0" y="333.1" text-anchor="middle" font-family="monospace" font-size="10">4096</text>
<text x="810.0" y="358" text-anchor="end" transform="rotate(-35 810.0 358)" font-family="sans-serif" font-size="11">user_scale_1024:knock_valid</text>
<rect x="848.5" y="340.0" width="39.7" height="0.0" fill="#2563eb"/>
<text x="868.4" y="335.0" text-anchor="middle" font-family="monospace" font-size="10">46</text>
<text x="868.4" y="358" text-anchor="end" transform="rotate(-35 868.4 358)" font-family="sans-serif" font-size="11">user_scale_1024:replay_drop</text>
<rect x="906.9" y="240.5" width="39.7" height="99.5" fill="#2563eb"/>
<text x="926.8" y="235.5" text-anchor="middle" font-family="monospace" font-size="10">209257</text>
<text x="926.8" y="358" text-anchor="end" transform="rotate(-35 926.8 358)" font-family="sans-serif" font-size="11">user_scale_1024:map_update_fail</text>
</svg>
