<svg xmlns="http://www.w3.org/2000/svg" width="980" height="420" viewBox="0 0 980 420">
<rect width="100%" height="100%" fill="#ffffff"/>
<text x="490.0" y="28" text-anchor="middle" font-family="sans-serif" font-size="18">Drop and Pass Scenario PPS</text>
<line x1="80" y1="48" x2="80" y2="340" stroke="#222"/>
<line x1="80" y1="340" x2="956" y2="340" stroke="#222"/>
<text x="18" y="194.0" transform="rotate(-90 18 194.0)" text-anchor="middle" font-family="sans-serif" font-size="12">PPS</text>
<line x1="80" y1="340.0" x2="956" y2="340.0" stroke="#e5e7eb"/>
<text x="72" y="344.0" text-anchor="end" font-family="monospace" font-size="11">0</text>
<line x1="80" y1="267.0" x2="956" y2="267.0" stroke="#e5e7eb"/>
<text x="72" y="271.0" text-anchor="end" font-family="monospace" font-size="11">48322</text>
<line x1="80" y1="194.0" x2="956" y2="194.0" stroke="#e5e7eb"/>
<text x="72" y="198.0" text-anchor="end" font-family="monospace" font-size="11">96644</text>
<line x1="80" y1="121.0" x2="956" y2="121.0" stroke="#e5e7eb"/>
<text x="72" y="125.0" text-anchor="end" font-family="monospace" font-size="11">144965</text>
<line x1="80" y1="48.0" x2="956" y2="48.0" stroke="#e5e7eb"/>
<text x="72" y="52.0" text-anchor="end" font-family="monospace" font-size="11">193287</text>
<rect x="115.0" y="50.3" width="148.9" height="289.7" fill="#2563eb"/>
<text x="189.5" y="45.3" text-anchor="middle" font-family="monospace" font-size="10">191751</text>
<text x="189.5" y="358" text-anchor="end" transform="rotate(-35 189.5 358)" font-family="sans-serif" font-size="11">xdp_unprotected_pass</text>
<rect x="334.0" y="50.9" width="148.9" height="289.1" fill="#2563eb"/>
<text x="408.5" y="45.9" text-anchor="middle" font-family="monospace" font-size="10">191347</text>
<text x="408.5" y="358" text-anchor="end" transform="rotate(-35 408.5 358)" font-family="sans-serif" font-size="11">protected_unauthorized_drop</text>
<rect x="553.0" y="48.0" width="148.9" height="292.0" fill="#2563eb"/>
<text x="627.5" y="43.0" text-anchor="middle" font-family="monospace" font-size="10">193287</text>
<text x="627.5" y="358" text-anchor="end" transform="rotate(-35 627.5 358)" font-family="sans-serif" font-size="11">authorized_protected_pass</text>
<rect x="772.0" y="141.4" width="148.9" height="198.6" fill="#2563eb"/>
<text x="846.5" y="136.4" text-anchor="middle" font-family="monospace" font-size="10">131475</text>
<text x="846.5" y="358" text-anchor="end" transform="rotate(-35 846.5 358)" font-family="sans-serif" font-size="11">replay_drop</text>
</svg>
