<svg xmlns="http://www.w3.org/2000/svg" width="980" height="420" viewBox="0 0 980 420">
<rect width="100%" height="100%" fill="#ffffff"/>
<text x="490.0" y="28" text-anchor="middle" font-family="sans-serif" font-size="18">Session Pressure PPS</text>
<line x1="80" y1="48" x2="80" y2="340" stroke="#222"/>
<line x1="80" y1="340" x2="956" y2="340" stroke="#222"/>
<text x="18" y="194.0" transform="rotate(-90 18 194.0)" text-anchor="middle" font-family="sans-serif" font-size="12">PPS</text>
<line x1="80" y1="340.0" x2="956" y2="340.0" stroke="#e5e7eb"/>
<text x="72" y="344.0" text-anchor="end" font-family="monospace" font-size="11">0</text>
<line x1="80" y1="267.0" x2="956" y2="267.0" stroke="#e5e7eb"/>
<text x="72" y="271.0" text-anchor="end" font-family="monospace" font-size="11">50173</text>
<line x1="80" y1="194.0" x2="956" y2="194.0" stroke="#e5e7eb"/>
<text x="72" y="198.0" text-anchor="end" font-family="monospace" font-size="11">100346</text>
<line x1="80" y1="121.0" x2="956" y2="121.0" stroke="#e5e7eb"/>
<text x="72" y="125.0" text-anchor="end" font-family="monospace" font-size="11">150518</text>
<line x1="80" y1="48.0" x2="956" y2="48.0" stroke="#e5e7eb"/>
<text x="72" y="52.0" text-anchor="end" font-family="monospace" font-size="11">200691</text>
<rect x="126.7" y="61.6" width="198.6" height="278.4" fill="#2563eb"/>
<text x="226.0" y="56.6" text-anchor="middle" font-family="monospace" font-size="10">191347</text>
<text x="226.0" y="358" text-anchor="end" transform="rotate(-35 226.0 358)" font-family="sans-serif" font-size="11">protected_unauthorized_drop</text>
<rect x="418.7" y="58.8" width="198.6" height="281.2" fill="#2563eb"/>
<text x="518.0" y="53.8" text-anchor="middle" font-family="monospace" font-size="10">193287</text>
<text x="518.0" y="358" text-anchor="end" transform="rotate(-35 518.0 358)" font-family="sans-serif" font-size="11">authorized_protected_pass</text>
<rect x="710.7" y="48.0" width="198.6" height="292.0" fill="#2563eb"/>
<text x="810.0" y="43.0" text-anchor="middle" font-family="monospace" font-size="10">200691</text>
<text x="810.0" y="358" text-anchor="end" transform="rotate(-35 810.0 358)" font-family="sans-serif" font-size="11">active_session_pressure_32</text>
</svg>
