<svg xmlns="http://www.w3.org/2000/svg" width="980" height="420" viewBox="0 0 980 420">
<rect width="100%" height="100%" fill="#ffffff"/>
<text x="490.0" y="28" text-anchor="middle" font-family="sans-serif" font-size="18">Stats Timeseries</text>
<line x1="80" y1="48" x2="80" y2="356" stroke="#222"/>
<line x1="80" y1="356" x2="840" y2="356" stroke="#222"/>
<line x1="80" y1="356.0" x2="840" y2="356.0" stroke="#e5e7eb"/>
<text x="72" y="360.0" text-anchor="end" font-family="monospace" font-size="11">0</text>
<line x1="80" y1="279.0" x2="840" y2="279.0" stroke="#e5e7eb"/>
<text x="72" y="283.0" text-anchor="end" font-family="monospace" font-size="11">442692</text>
<line x1="80" y1="202.0" x2="840" y2="202.0" stroke="#e5e7eb"/>
<text x="72" y="206.0" text-anchor="end" font-family="monospace" font-size="11">885384</text>
<line x1="80" y1="125.0" x2="840" y2="125.0" stroke="#e5e7eb"/>
<text x="72" y="129.0" text-anchor="end" font-family="monospace" font-size="11">1328076</text>
<line x1="80" y1="48.0" x2="840" y2="48.0" stroke="#e5e7eb"/>
<text x="72" y="52.0" text-anchor="end" font-family="monospace" font-size="11">1770768</text>
<polyline fill="none" stroke="#2563eb" stroke-width="2" points="80.0,356.0 95.5,356.0 111.0,356.0 126.5,356.0 142.0,356.0 157.6,352.1 173.1,320.4 188.6,281.1 204.1,246.1 219.6,223.3 235.1,223.3 250.6,223.3 266.1,223.3 281.6,223.3 297.1,223.3 312.7,213.6 328.2,180.1 343.7,143.4 359.2,107.3 374.7,87.1 390.2,87.1 405.7,87.1 421.2,87.1 436.7,87.1 452.2,87.1 467.8,87.1 483.3,87.1 498.8,87.1 514.3,87.1 529.8,87.1 545.3,87.1 560.8,87.1 576.3,87.1 591.8,87.1 607.3,87.1 622.9,87.1 638.4,356.0 653.9,356.0 669.4,356.0 684.9,356.0 700.4,356.0 715.9,356.0 731.4,356.0 746.9,356.0 762.4,356.0 778.0,356.0 793.5,356.0 809.0,356.0 824.5,356.0 840.0,356.0"/>
<rect x="858" y="48" width="12" height="12" fill="#2563eb"/>
<text x="876" y="59" font-family="sans-serif" font-size="12">protected_drop</text>
<polyline fill="none" stroke="#dc2626" stroke-width="2" points="80.0,356.0 95.5,356.0 111.0,356.0 126.5,356.0 142.0,356.0 157.6,356.0 173.1,356.0 188.6,356.0 204.1,356.0 219.6,356.0 235.1,356.0 250.6,356.0 266.1,356.0 281.6,356.0 297.1,356.0 312.7,356.0 328.2,356.0 343.7,356.0 359.2,356.0 374.7,356.0 390.2,356.0 405.7,356.0 421.2,356.0 436.7,356.0 452.2,356.0 467.8,356.0 483.3,356.0 498.8,356.0 514.3,356.0 529.8,356.0 545.3,356.0 560.8,352.1 576.3,314.9 591.8,277.9 607.3,238.4 622.9,214.0 638.4,356.0 653.9,356.0 669.4,356.0 684.9,356.0 700.4,356.0 715.9,356.0 731.4,356.0 746.9,356.0 762.4,356.0 778.0,356.0 793.5,356.0 809.0,356.0 824.5,356.0 840.0,356.0"/>
<rect x="858" y="70" width="12" height="12" fill="#dc2626"/>
<text x="876" y="81" font-family="sans-serif" font-size="12">protected_pass</text>
<polyline fill="none" stroke="#059669" stroke-width="2" points="80.0,356.0 95.5,356.0 111.0,356.0 126.5,356.0 142.0,356.0 157.6,356.0 173.1,356.0 188.6,356.0 204.1,356.0 219.6,356.0 235.1,351.3 250.6,350.3 266.1,350.3 281.6,350.3 297.1,350.3 312.7,350.3 328.2,350.3 343.7,350.3 359.2,350.3 374.7,350.3 390.2,350.3 405.7,350.3 421.2,350.3 436.7,350.3 452.2,350.3 467.8,350.3 483.3,350.3 498.8,350.3 514.3,350.3 529.8,350.3 545.3,350.3 560.8,350.3 576.3,350.3 591.8,350.3 607.3,350.3 622.9,350.3 638.4,356.0 653.9,356.0 669.4,351.4 684.9,344.6 700.4,344.6 715.9,344.6 731.4,344.6 746.9,356.0 762.4,356.0 778.0,348.8 793.5,344.6 809.0,344.6 824.5,344.6 840.0,344.6"/>
<rect x="858" y="92" width="12" height="12" fill="#059669"/>
<text x="876" y="103" font-family="sans-serif" font-size="12">knock_seen</text>
<polyline fill="none" stroke="#d97706" stroke-width="2" points="80.0,356.0 95.5,356.0 111.0,356.0 126.5,356.0 142.0,356.0 157.6,356.0 173.1,356.0 188.6,356.0 204.1,356.0 219.6,356.0 235.1,356.0 250.6,324.3 266.1,290.5 281.6,252.9 297.1,231.5 312.7,231.5 328.2,231.5 343.7,231.5 359.2,231.5 374.7,231.5 390.2,222.3 405.7,197.1 421.2,170.1 436.7,145.7 452.2,136.2 467.8,126.9 483.3,103.0 498.8,77.0 514.3,55.1 529.8,48.0 545.3,48.0 560.8,48.0 576.3,48.0 591.8,48.0 607.3,48.0 622.9,48.0 638.4,356.0 653.9,356.0 669.4,356.0 684.9,344.0 700.4,317.6 715.9,294.1 731.4,282.3 746.9,356.0 762.4,356.0 778.0,356.0 793.5,341.4 809.0,320.1 824.5,298.7 840.0,291.5"/>
<rect x="858" y="114" width="12" height="12" fill="#d97706"/>
<text x="876" y="125" font-family="sans-serif" font-size="12">knock_rate_drop</text>
</svg>
