<svg xmlns="http://www.w3.org/2000/svg" width="980" height="420" viewBox="0 0 980 420">
<rect width="100%" height="100%" fill="#ffffff"/>
<text x="490.0" y="28" text-anchor="middle" font-family="sans-serif" font-size="18">User Scale PPS</text>
<line x1="80" y1="48" x2="80" y2="340" stroke="#222"/>
<line x1="80" y1="340" x2="956" y2="340" stroke="#222"/>
<text x="18" y="194.0" transform="rotate(-90 18 194.0)" text-anchor="middle" font-family="sans-serif" font-size="12">PPS</text>
<line x1="80" y1="340.0" x2="956" y2="340.0" stroke="#e5e7eb"/>
<text x="72" y="344.0" text-anchor="end" font-family="monospace" font-size="11">0</text>
<line x1="80" y1="267.0" x2="956" y2="267.0" stroke="#e5e7eb"/>
<text x="72" y="271.0" text-anchor="end" font-family="monospace" font-size="11">33725</text>
<line x1="80" y1="194.0" x2="956" y2="194.0" stroke="#e5e7eb"/>
<text x="72" y="198.0" text-anchor="end" font-family="monospace" font-size="11">67450</text>
<line x1="80" y1="121.0" x2="956" y2="121.0" stroke="#e5e7eb"/>
<text x="72" y="125.0" text-anchor="end" font-family="monospace" font-size="11">101174</text>
<line x1="80" y1="48.0" x2="956" y2="48.0" stroke="#e5e7eb"/>
<text x="72" y="52.0" text-anchor="end" font-family="monospace" font-size="11">134899</text>
<rect x="150.1" y="48.0" width="297.8" height="292.0" fill="#2563eb"/>
<text x="299.0" y="43.0" text-anchor="middle" font-family="monospace" font-size="10">134899</text>
<text x="299.0" y="358" text-anchor="end" transform="rotate(-35 299.0 358)" font-family="sans-serif" font-size="11">user_scale_128</text>
<rect x="588.1" y="90.0" width="297.8" height="250.0" fill="#2563eb"/>
<text x="737.0" y="85.0" text-anchor="middle" font-family="monospace" font-size="10">115489</text>
<text x="737.0" y="358" text-anchor="end" transform="rotate(-35 737.0 358)" font-family="sans-serif" font-size="11">user_scale_1024</text>
</svg>
