<svg xmlns="http://www.w3.org/2000/svg" width="980" height="420" viewBox="0 0 980 420">
<rect width="100%" height="100%" fill="#ffffff"/>
<text x="490.0" y="28" text-anchor="middle" font-family="sans-serif" font-size="18">Stats Timeseries</text>
<line x1="80" y1="48" x2="80" y2="356" stroke="#222"/>
<line x1="80" y1="356" x2="840" y2="356" stroke="#222"/>
<line x1="80" y1="356.0" x2="840" y2="356.0" stroke="#e5e7eb"/>
<text x="72" y="360.0" text-anchor="end" font-family="monospace" font-size="11">0</text>
<line x1="80" y1="279.0" x2="840" y2="279.0" stroke="#e5e7eb"/>
<text x="72" y="283.0" text-anchor="end" font-family="monospace" font-size="11">194022</text>
<line x1="80" y1="202.0" x2="840" y2="202.0" stroke="#e5e7eb"/>
<text x="72" y="206.0" text-anchor="end" font-family="monospace" font-size="11">388044</text>
<line x1="80" y1="125.0" x2="840" y2="125.0" stroke="#e5e7eb"/>
<text x="72" y="129.0" text-anchor="end" font-family="monospace" font-size="11">582066</text>
<line x1="80" y1="48.0" x2="840" y2="48.0" stroke="#e5e7eb"/>
<text x="72" y="52.0" text-anchor="end" font-family="monospace" font-size="11">776088</text>
<polyline fill="none" stroke="#2563eb" stroke-width="2" points="80.0,356.0 94.9,356.0 109.8,356.0 124.7,356.0 139.6,356.0 154.5,346.4 169.4,265.7 184.3,179.6 199.2,96.8 214.1,53.7 229.0,53.7 243.9,53.7 258.8,53.7 273.7,53.7 288.6,53.7 303.5,356.0 318.4,356.0 333.3,356.0 348.2,356.0 363.1,356.0 378.0,356.0 392.9,356.0 407.8,356.0 422.7,356.0 437.6,356.0 452.5,356.0 467.5,356.0 482.4,356.0 497.3,356.0 512.2,356.0 527.1,356.0 542.0,356.0 556.9,356.0 571.8,346.5 586.7,275.2 601.6,185.7 616.5,103.2 631.4,48.0 646.3,356.0 661.2,356.0 676.1,356.0 691.0,356.0 705.9,356.0 720.8,356.0 735.7,356.0 750.6,356.0 765.5,356.0 780.4,356.0 795.3,356.0 810.2,356.0 825.1,356.0 840.0,356.0"/>
<rect x="858" y="48" width="12" height="12" fill="#2563eb"/>
<text x="876" y="59" font-family="sans-serif" font-size="12">protected_drop</text>
<polyline fill="none" stroke="#dc2626" stroke-width="2" points="80.0,356.0 94.9,356.0 109.8,356.0 124.7,356.0 139.6,356.0 154.5,356.0 169.4,356.0 184.3,356.0 199.2,356.0 214.1,356.0 229.0,356.0 243.9,356.0 258.8,356.0 273.7,356.0 288.6,356.0 303.5,356.0 318.4,356.0 333.3,330.5 348.2,257.3 363.1,176.7 378.0,97.7 392.9,61.5 407.8,61.5 422.7,61.5 437.6,61.5 452.5,61.5 467.5,61.5 482.4,61.5 497.3,61.5 512.2,61.5 527.1,61.5 542.0,61.5 556.9,61.5 571.8,61.5 586.7,61.5 601.6,61.5 616.5,61.5 631.4,61.5 646.3,356.0 661.2,356.0 676.1,356.0 691.0,356.0 705.9,356.0 720.8,356.0 735.7,356.0 750.6,356.0 765.5,356.0 780.4,356.0 795.3,356.0 810.2,356.0 825.1,356.0 840.0,356.0"/>
<rect x="858" y="70" width="12" height="12" fill="#dc2626"/>
<text x="876" y="81" font-family="sans-serif" font-size="12">protected_pass</text>
<polyline fill="none" stroke="#059669" stroke-width="2" points="80.0,356.0 94.9,356.0 109.8,356.0 124.7,356.0 139.6,356.0 154.5,356.0 169.4,356.0 184.3,356.0 199.2,356.0 214.1,356.0 229.0,343.0 243.9,343.0 258.8,343.0 273.7,343.0 288.6,343.0 303.5,356.0 318.4,356.0 333.3,356.0 348.2,356.0 363.1,356.0 378.0,356.0 392.9,356.0 407.8,356.0 422.7,356.0 437.6,356.0 452.5,356.0 467.5,356.0 482.4,355.9 497.3,355.9 512.2,355.9 527.1,355.9 542.0,355.9 556.9,355.9 571.8,355.9 586.7,355.9 601.6,355.9 616.5,355.9 631.4,355.9 646.3,356.0 661.2,356.0 676.1,347.5 691.0,330.0 705.9,330.0 720.8,330.0 735.7,330.0 750.6,356.0 765.5,356.0 780.4,342.5 795.3,330.0 810.2,330.0 825.1,330.0 840.0,330.0"/>
<rect x="858" y="92" width="12" height="12" fill="#059669"/>
<text x="876" y="103" font-family="sans-serif" font-size="12">knock_seen</text>
<polyline fill="none" stroke="#d97706" stroke-width="2" points="80.0,356.0 94.9,356.0 109.8,356.0 124.7,356.0 139.6,356.0 154.5,356.0 169.4,356.0 184.3,356.0 199.2,356.0 214.1,356.0 229.0,350.6 243.9,281.0 258.8,196.9 273.7,106.4 288.6,67.9 303.5,356.0 318.4,356.0 333.3,356.0 348.2,356.0 363.1,356.0 378.0,356.0 392.9,356.0 407.8,356.0 422.7,356.0 437.6,356.0 452.5,356.0 467.5,356.0 482.4,324.5 497.3,279.8 512.2,224.5 527.1,167.6 542.0,150.3 556.9,150.3 571.8,150.3 586.7,150.3 601.6,150.3 616.5,150.3 631.4,150.3 646.3,356.0 661.2,356.0 676.1,356.0 691.0,338.5 705.9,270.9 720.8,212.3 735.7,183.6 750.6,356.0 765.5,356.0 780.4,356.0 795.3,325.2 810.2,267.9 825.1,208.7 840.0,189.7"/>
<rect x="858" y="114" width="12" height="12" fill="#d97706"/>
<text x="876" y="125" font-family="sans-serif" font-size="12">knock_rate_drop</text>
</svg>
