<svg xmlns="http://www.w3.org/2000/svg" width="980" height="420" viewBox="0 0 980 420">
<rect width="100%" height="100%" fill="#ffffff"/>
<text x="490.0" y="28" text-anchor="middle" font-family="sans-serif" font-size="18">XDP Counter Deltas</text>
<line x1="80" y1="48" x2="80" y2="340" stroke="#222"/>
<line x1="80" y1="340" x2="956" y2="340" stroke="#222"/>
<text x="18" y="194.0" transform="rotate(-90 18 194.0)" text-anchor="middle" font-family="sans-serif" font-size="12">count</text>
<line x1="80" y1="340.0" x2="956" y2="340.0" stroke="#e5e7eb"/>
<text x="72" y="344.0" text-anchor="end" font-family="monospace" font-size="11">0</text>
<line x1="80" y1="267.0" x2="956" y2="267.0" stroke="#e5e7eb"/>
<text x="72" y="271.0" text-anchor="end" font-family="monospace" font-size="11">147711</text>
<line x1="80" y1="194.0" x2="956" y2="194.0" stroke="#e5e7eb"/>
<text x="72" y="198.0" text-anchor="end" font-family="monospace" font-size="11">295422</text>
<line x1="80" y1="121.0" x2="956" y2="121.0" stroke="#e5e7eb"/>
<text x="72" y="125.0" text-anchor="end" font-family="monospace" font-size="11">443133</text>
<line x1="80" y1="48.0" x2="956" y2="48.0" stroke="#e5e7eb"/>
<text x="72" y="52.0" text-anchor="end" font-family="monospace" font-size="11">590844</text>
<rect x="95.6" y="68.5" width="66.2" height="271.5" fill="#2563eb"/>
<text x="128.7" y="63.5" text-anchor="middle" font-family="monospace" font-size="10">549336</text>
<text x="128.7" y="358" text-anchor="end" transform="rotate(-35 128.7 358)" font-family="sans-serif" font-size="11">protected_unauthorized_drop:protected_drop</text>
<rect x="192.9" y="55.6" width="66.2" height="284.4" fill="#2563eb"/>
<text x="226.0" y="50.6" text-anchor="middle" font-family="monospace" font-size="10">575554</text>
<text x="226.0" y="358" text-anchor="end" transform="rotate(-35 226.0 358)" font-family="sans-serif" font-size="11">knock_invalid_user_or_key:knock_rate_drop</text>
<rect x="290.2" y="65.5" width="66.2" height="274.5" fill="#2563eb"/>
<text x="323.3" y="60.5" text-anchor="middle" font-family="monospace" font-size="10">555495</text>
<text x="323.3" y="358" text-anchor="end" transform="rotate(-35 323.3 358)" font-family="sans-serif" font-size="11">authorized_protected_pass:protected_pass</text>
<rect x="387.6" y="340.0" width="66.2" height="0.0" fill="#2563eb"/>
<text x="420.7" y="335.0" text-anchor="middle" font-family="monospace" font-size="10">60</text>
<text x="420.7" y="358" text-anchor="end" transform="rotate(-35 420.7 358)" font-family="sans-serif" font-size="11">replay_drop:knock_seen</text>
<rect x="484.9" y="340.0" width="66.2" height="0.0" fill="#2563eb"/>
<text x="518.0" y="335.0" text-anchor="middle" font-family="monospace" font-size="10">60</text>
<text x="518.0" y="358" text-anchor="end" transform="rotate(-35 518.0 358)" font-family="sans-serif" font-size="11">replay_drop:replay_drop</text>
<rect x="582.2" y="149.3" width="66.2" height="190.7" fill="#2563eb"/>
<text x="615.3" y="144.3" text-anchor="middle" font-family="monospace" font-size="10">385852</text>
<text x="615.3" y="358" text-anchor="end" transform="rotate(-35 615.3 358)" font-family="sans-serif" font-size="11">source_rate_limit:knock_rate_drop</text>
<rect x="679.6" y="48.0" width="66.2" height="292.0" fill="#2563eb"/>
<text x="712.7" y="43.0" text-anchor="middle" font-family="monospace" font-size="10">590844</text>
<text x="712.7" y="358" text-anchor="end" transform="rotate(-35 712.7 358)" font-family="sans-serif" font-size="11">active_session_pressure_32:protected_drop</text>
<rect x="776.9" y="126.8" width="66.2" height="213.2" fill="#2563eb"/>
<text x="810.0" y="121.8" text-anchor="middle" font-family="monospace" font-size="10">431380</text>
<text x="810.0" y="358" text-anchor="end" transform="rotate(-35 810.0 358)" font-family="sans-serif" font-size="11">user_scale_128:knock_rate_drop</text>
<rect x="874.2" y="143.7" width="66.2" height="196.3" fill="#2563eb"/>
<text x="907.3" y="138.7" text-anchor="middle" font-family="monospace" font-size="10">397269</text>
<text x="907.3" y="358" text-anchor="end" transform="rotate(-35 907.3 358)" font-family="sans-serif" font-size="11">user_scale_1024:knock_rate_drop</text>
</svg>
