<svg xmlns="http://www.w3.org/2000/svg" width="980" height="420" viewBox="0 0 980 420">
<rect width="100%" height="100%" fill="#ffffff"/>
<text x="490.0" y="28" text-anchor="middle" font-family="sans-serif" font-size="18">Drop and Pass Scenario PPS</text>
<line x1="80" y1="48" x2="80" y2="340" stroke="#222"/>
<line x1="80" y1="340" x2="956" y2="340" stroke="#222"/>
<text x="18" y="194.0" transform="rotate(-90 18 194.0)" text-anchor="middle" font-family="sans-serif" font-size="12">PPS</text>
<line x1="80" y1="340.0" x2="956" y2="340.0" stroke="#e5e7eb"/>
<text x="72" y="344.0" text-anchor="end" font-family="monospace" font-size="11">0</text>
<line x1="80" y1="267.0" x2="956" y2="267.0" stroke="#e5e7eb"/>
<text x="72" y="271.0" text-anchor="end" font-family="monospace" font-size="11">65213</text>
<line x1="80" y1="194.0" x2="956" y2="194.0" stroke="#e5e7eb"/>
<text x="72" y="198.0" text-anchor="end" font-family="monospace" font-size="11">130425</text>
<line x1="80" y1="121.0" x2="956" y2="121.0" stroke="#e5e7eb"/>
<text x="72" y="125.0" text-anchor="end" font-family="monospace" font-size="11">195638</text>
<line x1="80" y1="48.0" x2="956" y2="48.0" stroke="#e5e7eb"/>
<text x="72" y="52.0" text-anchor="end" font-family="monospace" font-size="11">260851</text>
<rect x="115.0" y="67.1" width="148.9" height="272.9" fill="#2563eb"/>
<text x="189.5" y="62.1" text-anchor="middle" font-family="monospace" font-size="10">243826</text>
<text x="189.5" y="358" text-anchor="end" transform="rotate(-35 189.5 358)" font-family="sans-serif" font-size="11">xdp_unprotected_pass</text>
<rect x="334.0" y="48.0" width="148.9" height="292.0" fill="#2563eb"/>
<text x="408.5" y="43.0" text-anchor="middle" font-family="monospace" font-size="10">260851</text>
<text x="408.5" y="358" text-anchor="end" transform="rotate(-35 408.5 358)" font-family="sans-serif" font-size="11">protected_unauthorized_drop</text>
<rect x="553.0" y="55.5" width="148.9" height="284.5" fill="#2563eb"/>
<text x="627.5" y="50.5" text-anchor="middle" font-family="monospace" font-size="10">254171</text>
<text x="627.5" y="358" text-anchor="end" transform="rotate(-35 627.5 358)" font-family="sans-serif" font-size="11">authorized_protected_pass</text>
<rect x="772.0" y="158.3" width="148.9" height="181.7" fill="#2563eb"/>
<text x="846.5" y="153.3" text-anchor="middle" font-family="monospace" font-size="10">162321</text>
<text x="846.5" y="358" text-anchor="end" transform="rotate(-35 846.5 358)" font-family="sans-serif" font-size="11">replay_drop</text>
</svg>
