<svg xmlns="http://www.w3.org/2000/svg" width="980" height="420" viewBox="0 0 980 420">
<rect width="100%" height="100%" fill="#ffffff"/>
<text x="490.0" y="28" text-anchor="middle" font-family="sans-serif" font-size="18">Stats Timeseries</text>
<line x1="80" y1="48" x2="80" y2="356" stroke="#222"/>
<line x1="80" y1="356" x2="840" y2="356" stroke="#222"/>
<line x1="80" y1="356.0" x2="840" y2="356.0" stroke="#e5e7eb"/>
<text x="72" y="360.0" text-anchor="end" font-family="monospace" font-size="11">0</text>
<line x1="80" y1="279.0" x2="840" y2="279.0" stroke="#e5e7eb"/>
<text x="72" y="283.0" text-anchor="end" font-family="monospace" font-size="11">0</text>
<line x1="80" y1="202.0" x2="840" y2="202.0" stroke="#e5e7eb"/>
<text x="72" y="206.0" text-anchor="end" font-family="monospace" font-size="11">0</text>
<line x1="80" y1="125.0" x2="840" y2="125.0" stroke="#e5e7eb"/>
<text x="72" y="129.0" text-anchor="end" font-family="monospace" font-size="11">1</text>
<line x1="80" y1="48.0" x2="840" y2="48.0" stroke="#e5e7eb"/>
<text x="72" y="52.0" text-anchor="end" font-family="monospace" font-size="11">1</text>
<polyline fill="none" stroke="#2563eb" stroke-width="2" points="80.0,356.0 96.2,356.0 112.3,356.0 128.5,356.0 144.7,356.0 160.9,356.0 177.0,356.0 193.2,356.0 209.4,356.0 225.5,356.0 241.7,356.0 257.9,356.0 274.0,356.0 290.2,356.0 306.4,356.0 322.6,356.0 338.7,356.0 354.9,356.0 371.1,356.0 387.2,356.0 403.4,356.0 419.6,356.0 435.7,356.0 451.9,356.0 468.1,356.0 484.3,356.0 500.4,356.0 516.6,356.0 532.8,356.0 548.9,356.0 565.1,356.0 581.3,356.0 597.4,356.0 613.6,356.0 629.8,356.0 646.0,356.0 662.1,356.0 678.3,356.0 694.5,356.0 710.6,356.0 726.8,356.0 743.0,356.0 759.1,356.0 775.3,356.0 791.5,356.0 807.7,356.0 823.8,356.0 840.0,356.0"/>
<rect x="858" y="48" width="12" height="12" fill="#2563eb"/>
<text x="876" y="59" font-family="sans-serif" font-size="12">protected_drop</text>
<polyline fill="none" stroke="#dc2626" stroke-width="2" points="80.0,356.0 96.2,356.0 112.3,356.0 128.5,356.0 144.7,356.0 160.9,356.0 177.0,356.0 193.2,356.0 209.4,356.0 225.5,356.0 241.7,356.0 257.9,356.0 274.0,356.0 290.2,356.0 306.4,356.0 322.6,356.0 338.7,356.0 354.9,356.0 371.1,356.0 387.2,356.0 403.4,356.0 419.6,356.0 435.7,356.0 451.9,356.0 468.1,356.0 484.3,356.0 500.4,356.0 516.6,356.0 532.8,356.0 548.9,356.0 565.1,356.0 581.3,356.0 597.4,356.0 613.6,356.0 629.8,356.0 646.0,356.0 662.1,356.0 678.3,356.0 694.5,356.0 710.6,356.0 726.8,356.0 743.0,356.0 759.1,356.0 775.3,356.0 791.5,356.0 807.7,356.0 823.8,356.0 840.0,356.0"/>
<rect x="858" y="70" width="12" height="12" fill="#dc2626"/>
<text x="876" y="81" font-family="sans-serif" font-size="12">protected_pass</text>
<polyline fill="none" stroke="#059669" stroke-width="2" points="80.0,356.0 96.2,356.0 112.3,356.0 128.5,356.0 144.7,356.0 160.9,356.0 177.0,356.0 193.2,356.0 209.4,356.0 225.5,356.0 241.7,356.0 257.9,356.0 274.0,356.0 290.2,356.0 306.4,356.0 322.6,356.0 338.7,356.0 354.9,356.0 371.1,356.0 387.2,356.0 403.4,356.0 419.6,356.0 435.7,356.0 451.9,356.0 468.1,356.0 484.3,356.0 500.4,356.0 516.6,356.0 532.8,356.0 548.9,356.0 565.1,356.0 581.3,356.0 597.4,356.0 613.6,356.0 629.8,356.0 646.0,356.0 662.1,356.0 678.3,356.0 694.5,356.0 710.6,356.0 726.8,356.0 743.0,356.0 759.1,356.0 775.3,356.0 791.5,356.0 807.7,356.0 823.8,356.0 840.0,356.0"/>
<rect x="858" y="92" width="12" height="12" fill="#059669"/>
<text x="876" y="103" font-family="sans-serif" font-size="12">knock_seen</text>
<polyline fill="none" stroke="#d97706" stroke-width="2" points="80.0,356.0 96.2,356.0 112.3,356.0 128.5,356.0 144.7,356.0 160.9,356.0 177.0,356.0 193.2,356.0 209.4,356.0 225.5,356.0 241.7,356.0 257.9,356.0 274.0,356.0 290.2,356.0 306.4,356.0 322.6,356.0 338.7,356.0 354.9,356.0 371.1,356.0 387.2,356.0 403.4,356.0 419.6,356.0 435.7,356.0 451.9,356.0 468.1,356.0 484.3,356.0 500.4,356.0 516.6,356.0 532.8,356.0 548.9,356.0 565.1,356.0 581.3,356.0 597.4,356.0 613.6,356.0 629.8,356.0 646.0,356.0 662.1,356.0 678.3,356.0 694.5,356.0 710.6,356.0 726.8,356.0 743.0,356.0 759.1,356.0 775.3,356.0 791.5,356.0 807.7,356.0 823.8,356.0 840.0,356.0"/>
<rect x="858" y="114" width="12" height="12" fill="#d97706"/>
<text x="876" y="125" font-family="sans-serif" font-size="12">knock_rate_drop</text>
</svg>
