<svg xmlns="http://www.w3.org/2000/svg" width="980" height="420" viewBox="0 0 980 420">
<rect width="100%" height="100%" fill="#ffffff"/>
<text x="490.0" y="28" text-anchor="middle" font-family="sans-serif" font-size="18">XDP Counter Deltas</text>
<line x1="80" y1="48" x2="80" y2="340" stroke="#222"/>
<line x1="80" y1="340" x2="956" y2="340" stroke="#222"/>
<text x="18" y="194.0" transform="rotate(-90 18 194.0)" text-anchor="middle" font-family="sans-serif" font-size="12">count</text>
<line x1="80" y1="340.0" x2="956" y2="340.0" stroke="#e5e7eb"/>
<text x="72" y="344.0" text-anchor="end" font-family="monospace" font-size="11">0</text>
<line x1="80" y1="267.0" x2="956" y2="267.0" stroke="#e5e7eb"/>
<text x="72" y="271.0" text-anchor="end" font-family="monospace" font-size="11">2033404481</text>
<line x1="80" y1="194.0" x2="956" y2="194.0" stroke="#e5e7eb"/>
<text x="72" y="198.0" text-anchor="end" font-family="monospace" font-size="11">4066808962</text>
<line x1="80" y1="121.0" x2="956" y2="121.0" stroke="#e5e7eb"/>
<text x="72" y="125.0" text-anchor="end" font-family="monospace" font-size="11">6100213443</text>
<line x1="80" y1="48.0" x2="956" y2="48.0" stroke="#e5e7eb"/>
<text x="72" y="52.0" text-anchor="end" font-family="monospace" font-size="11">8133617924</text>
<rect x="87.0" y="48.0" width="29.8" height="292.0" fill="#2563eb"/>
<text x="101.9" y="43.0" text-anchor="middle" font-family="monospace" font-size="10">8133617924</text>
<text x="101.9" y="358" text-anchor="end" transform="rotate(-35 101.9 358)" font-family="sans-serif" font-size="11">baseline_no_xdp:knock_valid</text>
<rect x="130.8" y="340.0" width="29.8" height="0.0" fill="#2563eb"/>
<text x="145.7" y="335.0" text-anchor="middle" font-family="monospace" font-size="10">23</text>
<text x="145.7" y="358" text-anchor="end" transform="rotate(-35 145.7 358)" font-family="sans-serif" font-size="11">baseline_no_xdp:replay_drop</text>
<rect x="174.6" y="67.5" width="29.8" height="272.5" fill="#2563eb"/>
<text x="189.5" y="62.5" text-anchor="middle" font-family="monospace" font-size="10">7591302125</text>
<text x="189.5" y="358" text-anchor="end" transform="rotate(-35 189.5 358)" font-family="sans-serif" font-size="11">xdp_unprotected_pass:knock_valid</text>
<rect x="218.4" y="340.0" width="29.8" height="0.0" fill="#2563eb"/>
<text x="233.3" y="335.0" text-anchor="middle" font-family="monospace" font-size="10">22</text>
<text x="233.3" y="358" text-anchor="end" transform="rotate(-35 233.3 358)" font-family="sans-serif" font-size="11">xdp_unprotected_pass:replay_drop</text>
<rect x="262.2" y="67.1" width="29.8" height="272.9" fill="#2563eb"/>
<text x="277.1" y="62.1" text-anchor="middle" font-family="monospace" font-size="10">7602756665</text>
<text x="277.1" y="358" text-anchor="end" transform="rotate(-35 277.1 358)" font-family="sans-serif" font-size="11">protected_unauthorized_drop:knock_valid</text>
<rect x="306.0" y="340.0" width="29.8" height="0.0" fill="#2563eb"/>
<text x="320.9" y="335.0" text-anchor="middle" font-family="monospace" font-size="10">18</text>
<text x="320.9" y="358" text-anchor="end" transform="rotate(-35 320.9 358)" font-family="sans-serif" font-size="11">protected_unauthorized_drop:replay_drop</text>
<rect x="349.8" y="57.8" width="29.8" height="282.2" fill="#2563eb"/>
<text x="364.7" y="52.8" text-anchor="middle" font-family="monospace" font-size="10">7861667235</text>
<text x="364.7" y="358" text-anchor="end" transform="rotate(-35 364.7 358)" font-family="sans-serif" font-size="11">knock_invalid_user_or_key:knock_valid</text>
<rect x="393.6" y="340.0" width="29.8" height="0.0" fill="#2563eb"/>
<text x="408.5" y="335.0" text-anchor="middle" font-family="monospace" font-size="10">20</text>
<text x="408.5" y="358" text-anchor="end" transform="rotate(-35 408.5 358)" font-family="sans-serif" font-size="11">knock_invalid_user_or_key:replay_drop</text>
<rect x="437.4" y="68.5" width="29.8" height="271.5" fill="#2563eb"/>
<text x="452.3" y="63.5" text-anchor="middle" font-family="monospace" font-size="10">7562713801</text>
<text x="452.3" y="358" text-anchor="end" transform="rotate(-35 452.3 358)" font-family="sans-serif" font-size="11">authorized_protected_pass:knock_valid</text>
<rect x="481.2" y="340.0" width="29.8" height="0.0" fill="#2563eb"/>
<text x="496.1" y="335.0" text-anchor="middle" font-family="monospace" font-size="10">13</text>
<text x="496.1" y="358" text-anchor="end" transform="rotate(-35 496.1 358)" font-family="sans-serif" font-size="11">authorized_protected_pass:replay_drop</text>
<rect x="525.0" y="62.2" width="29.8" height="277.8" fill="#2563eb"/>
<text x="539.9" y="57.2" text-anchor="middle" font-family="monospace" font-size="10">7738479969</text>
<text x="539.9" y="358" text-anchor="end" transform="rotate(-35 539.9 358)" font-family="sans-serif" font-size="11">replay_drop:knock_valid</text>
<rect x="568.8" y="340.0" width="29.8" height="0.0" fill="#2563eb"/>
<text x="583.7" y="335.0" text-anchor="middle" font-family="monospace" font-size="10">20</text>
<text x="583.7" y="358" text-anchor="end" transform="rotate(-35 583.7 358)" font-family="sans-serif" font-size="11">replay_drop:replay_drop</text>
<rect x="612.6" y="57.0" width="29.8" height="283.0" fill="#2563eb"/>
<text x="627.5" y="52.0" text-anchor="middle" font-family="monospace" font-size="10">7883852730</text>
<text x="627.5" y="358" text-anchor="end" transform="rotate(-35 627.5 358)" font-family="sans-serif" font-size="11">source_rate_limit:knock_valid</text>
<rect x="656.4" y="340.0" width="29.8" height="0.0" fill="#2563eb"/>
<text x="671.3" y="335.0" text-anchor="middle" font-family="monospace" font-size="10">20</text>
<text x="671.3" y="358" text-anchor="end" transform="rotate(-35 671.3 358)" font-family="sans-serif" font-size="11">source_rate_limit:replay_drop</text>
<rect x="700.2" y="69.3" width="29.8" height="270.7" fill="#2563eb"/>
<text x="715.1" y="64.3" text-anchor="middle" font-family="monospace" font-size="10">7540741070</text>
<text x="715.1" y="358" text-anchor="end" transform="rotate(-35 715.1 358)" font-family="sans-serif" font-size="11">active_session_pressure_32:knock_valid</text>
<rect x="744.0" y="340.0" width="29.8" height="0.0" fill="#2563eb"/>
<text x="758.9" y="335.0" text-anchor="middle" font-family="monospace" font-size="10">14</text>
<text x="758.9" y="358" text-anchor="end" transform="rotate(-35 758.9 358)" font-family="sans-serif" font-size="11">active_session_pressure_32:replay_drop</text>
<rect x="787.8" y="55.3" width="29.8" height="284.7" fill="#2563eb"/>
<text x="802.7" y="50.3" text-anchor="middle" font-family="monospace" font-size="10">7931419452</text>
<text x="802.7" y="358" text-anchor="end" transform="rotate(-35 802.7 358)" font-family="sans-serif" font-size="11">user_scale_128:knock_valid</text>
<rect x="831.6" y="340.0" width="29.8" height="0.0" fill="#2563eb"/>
<text x="846.5" y="335.0" text-anchor="middle" font-family="monospace" font-size="10">20</text>
<text x="846.5" y="358" text-anchor="end" transform="rotate(-35 846.5 358)" font-family="sans-serif" font-size="11">user_scale_128:replay_drop</text>
<rect x="875.4" y="69.7" width="29.8" height="270.3" fill="#2563eb"/>
<text x="890.3" y="64.7" text-anchor="middle" font-family="monospace" font-size="10">7528903922</text>
<text x="890.3" y="358" text-anchor="end" transform="rotate(-35 890.3 358)" font-family="sans-serif" font-size="11">user_scale_1024:knock_valid</text>
<rect x="919.2" y="340.0" width="29.8" height="0.0" fill="#2563eb"/>
<text x="934.1" y="335.0" text-anchor="middle" font-family="monospace" font-size="10">18</text>
<text x="934.1" y="358" text-anchor="end" transform="rotate(-35 934.1 358)" font-family="sans-serif" font-size="11">user_scale_1024:replay_drop</text>
</svg>
