<svg xmlns="http://www.w3.org/2000/svg" width="980" height="420" viewBox="0 0 980 420">
<rect width="100%" height="100%" fill="#ffffff"/>
<text x="490.0" y="28" text-anchor="middle" font-family="sans-serif" font-size="18">Median PPS by Scenario</text>
<line x1="80" y1="48" x2="80" y2="340" stroke="#222"/>
<line x1="80" y1="340" x2="956" y2="340" stroke="#222"/>
<text x="18" y="194.0" transform="rotate(-90 18 194.0)" text-anchor="middle" font-family="sans-serif" font-size="12">PPS</text>
<line x1="80" y1="340.0" x2="956" y2="340.0" stroke="#e5e7eb"/>
<text x="72" y="344.0" text-anchor="end" font-family="monospace" font-size="11">0</text>
<line x1="80" y1="267.0" x2="956" y2="267.0" stroke="#e5e7eb"/>
<text x="72" y="271.0" text-anchor="end" font-family="monospace" font-size="11">55230</text>
<line x1="80" y1="194.0" x2="956" y2="194.0" stroke="#e5e7eb"/>
<text x="72" y="198.0" text-anchor="end" font-family="monospace" font-size="11">110459</text>
<line x1="80" y1="121.0" x2="956" y2="121.0" stroke="#e5e7eb"/>
<text x="72" y="125.0" text-anchor="end" font-family="monospace" font-size="11">165689</text>
<line x1="80" y1="48.0" x2="956" y2="48.0" stroke="#e5e7eb"/>
<text x="72" y="52.0" text-anchor="end" font-family="monospace" font-size="11">220918</text>
<rect x="94.0" y="48.0" width="59.6" height="292.0" fill="#2563eb"/>
<text x="123.8" y="43.0" text-anchor="middle" font-family="monospace" font-size="10">220918</text>
<text x="123.8" y="358" text-anchor="end" transform="rotate(-35 123.8 358)" font-family="sans-serif" font-size="11">baseline_no_xdp</text>
<rect x="181.6" y="88.7" width="59.6" height="251.3" fill="#2563eb"/>
<text x="211.4" y="83.7" text-anchor="middle" font-family="monospace" font-size="10">190123</text>
<text x="211.4" y="358" text-anchor="end" transform="rotate(-35 211.4 358)" font-family="sans-serif" font-size="11">xdp_unprotected_pass</text>
<rect x="269.2" y="70.6" width="59.6" height="269.4" fill="#2563eb"/>
<text x="299.0" y="65.6" text-anchor="middle" font-family="monospace" font-size="10">203791</text>
<text x="299.0" y="358" text-anchor="end" transform="rotate(-35 299.0 358)" font-family="sans-serif" font-size="11">protected_unauthorized_drop</text>
<rect x="356.8" y="77.6" width="59.6" height="262.4" fill="#2563eb"/>
<text x="386.6" y="72.6" text-anchor="middle" font-family="monospace" font-size="10">198503</text>
<text x="386.6" y="358" text-anchor="end" transform="rotate(-35 386.6 358)" font-family="sans-serif" font-size="11">knock_invalid_user_or_key</text>
<rect x="444.4" y="82.5" width="59.6" height="257.5" fill="#2563eb"/>
<text x="474.2" y="77.5" text-anchor="middle" font-family="monospace" font-size="10">194816</text>
<text x="474.2" y="358" text-anchor="end" transform="rotate(-35 474.2 358)" font-family="sans-serif" font-size="11">authorized_protected_pass</text>
<rect x="532.0" y="340.0" width="59.6" height="0.0" fill="#2563eb"/>
<text x="561.8" y="335.0" text-anchor="middle" font-family="monospace" font-size="10">20</text>
<text x="561.8" y="358" text-anchor="end" transform="rotate(-35 561.8 358)" font-family="sans-serif" font-size="11">replay_drop</text>
<rect x="619.6" y="157.6" width="59.6" height="182.4" fill="#2563eb"/>
<text x="649.4" y="152.6" text-anchor="middle" font-family="monospace" font-size="10">138021</text>
<text x="649.4" y="358" text-anchor="end" transform="rotate(-35 649.4 358)" font-family="sans-serif" font-size="11">source_rate_limit</text>
<rect x="707.2" y="76.4" width="59.6" height="263.6" fill="#2563eb"/>
<text x="737.0" y="71.4" text-anchor="middle" font-family="monospace" font-size="10">199432</text>
<text x="737.0" y="358" text-anchor="end" transform="rotate(-35 737.0 358)" font-family="sans-serif" font-size="11">active_session_pressure_32</text>
<rect x="794.8" y="242.1" width="59.6" height="97.9" fill="#2563eb"/>
<text x="824.6" y="237.1" text-anchor="middle" font-family="monospace" font-size="10">74060</text>
<text x="824.6" y="358" text-anchor="end" transform="rotate(-35 824.6 358)" font-family="sans-serif" font-size="11">user_scale_128</text>
<rect x="882.4" y="242.3" width="59.6" height="97.7" fill="#2563eb"/>
<text x="912.2" y="237.3" text-anchor="middle" font-family="monospace" font-size="10">73919</text>
<text x="912.2" y="358" text-anchor="end" transform="rotate(-35 912.2 358)" font-family="sans-serif" font-size="11">user_scale_1024</text>
</svg>
