<svg xmlns="http://www.w3.org/2000/svg" width="980" height="420" viewBox="0 0 980 420">
<rect width="100%" height="100%" fill="#ffffff"/>
<text x="490.0" y="28" text-anchor="middle" font-family="sans-serif" font-size="18">Stats Timeseries</text>
<line x1="80" y1="48" x2="80" y2="356" stroke="#222"/>
<line x1="80" y1="356" x2="840" y2="356" stroke="#222"/>
<line x1="80" y1="356.0" x2="840" y2="356.0" stroke="#e5e7eb"/>
<text x="72" y="360.0" text-anchor="end" font-family="monospace" font-size="11">0</text>
<line x1="80" y1="279.0" x2="840" y2="279.0" stroke="#e5e7eb"/>
<text x="72" y="283.0" text-anchor="end" font-family="monospace" font-size="11">5342117</text>
<line x1="80" y1="202.0" x2="840" y2="202.0" stroke="#e5e7eb"/>
<text x="72" y="206.0" text-anchor="end" font-family="monospace" font-size="11">10684234</text>
<line x1="80" y1="125.0" x2="840" y2="125.0" stroke="#e5e7eb"/>
<text x="72" y="129.0" text-anchor="end" font-family="monospace" font-size="11">16026350</text>
<line x1="80" y1="48.0" x2="840" y2="48.0" stroke="#e5e7eb"/>
<text x="72" y="52.0" text-anchor="end" font-family="monospace" font-size="11">21368467</text>
<polyline fill="none" stroke="#2563eb" stroke-width="2" points="80.0,356.0 80.8,356.0 81.6,356.0 82.4,356.0 83.1,356.0 83.9,356.0 84.7,356.0 85.5,356.0 86.3,356.0 87.1,356.0 87.9,356.0 88.6,356.0 89.4,356.0 90.2,356.0 91.0,356.0 91.8,356.0 92.6,356.0 93.4,356.0 94.1,356.0 94.9,356.0 95.7,356.0 96.5,356.0 97.3,356.0 98.1,356.0 98.9,356.0 99.6,356.0 100.4,356.0 101.2,356.0 102.0,356.0 102.8,356.0 103.6,356.0 104.4,356.0 105.1,356.0 105.9,356.0 106.7,356.0 107.5,356.0 108.3,356.0 109.1,356.0 109.9,356.0 110.7,356.0 111.4,356.0 112.2,356.0 113.0,356.0 113.8,356.0 114.6,356.0 115.4,356.0 116.2,356.0 116.9,356.0 117.7,356.0 118.5,356.0 119.3,356.0 120.1,356.0 120.9,356.0 121.7,356.0 122.4,356.0 123.2,356.0 124.0,356.0 124.8,356.0 125.6,356.0 126.4,356.0 127.2,356.0 127.9,356.0 128.7,356.0 129.5,356.0 130.3,356.0 131.1,356.0 131.9,356.0 132.7,356.0 133.4,356.0 134.2,356.0 135.0,356.0 135.8,356.0 136.6,356.0 137.4,356.0 138.2,356.0 138.9,356.0 139.7,356.0 140.5,356.0 141.3,356.0 142.1,356.0 142.9,356.0 143.7,356.0 144.4,356.0 145.2,356.0 146.0,356.0 146.8,356.0 147.6,356.0 148.4,356.0 149.2,356.0 149.9,356.0 150.7,356.0 151.5,356.0 152.3,356.0 153.1,356.0 153.9,356.0 154.7,356.0 155.4,356.0 156.2,356.0 157.0,356.0 157.8,356.0 158.6,356.0 159.4,356.0 160.2,356.0 161.0,356.0 161.7,356.0 162.5,356.0 163.3,356.0 164.1,354.4 164.9,351.0 165.7,347.7 166.5,344.6 167.2,341.5 168.0,338.3 168.8,335.0 169.6,332.0 170.4,328.9 171.2,325.8 172.0,322.6 172.7,319.2 173.5,316.0 174.3,312.8 175.1,309.5 175.9,306.2 176.7,303.4 177.5,300.4 178.2,297.6 179.0,294.5 179.8,291.5 180.6,288.8 181.4,285.6 182.2,282.0 183.0,279.0 183.7,275.9 184.5,272.6 185.3,269.7 186.1,266.6 186.9,263.1 187.7,260.0 188.5,256.6 189.2,253.0 190.0,252.8 190.8,252.8 191.6,252.7 192.4,249.6 193.2,246.2 194.0,242.7 194.7,239.7 195.5,236.6 196.3,233.2 197.1,230.2 197.9,227.2 198.7,224.0 199.5,221.0 200.2,217.4 201.0,214.3 201.8,211.0 202.6,208.0 203.4,205.1 204.2,201.9 205.0,198.9 205.7,196.5 206.5,193.5 207.3,190.3 208.1,187.4 208.9,184.1 209.7,181.1 210.5,177.9 211.3,174.9 212.0,171.5 212.8,168.2 213.6,165.1 214.4,161.7 215.2,158.2 216.0,154.6 216.8,151.2 217.5,149.3 218.3,149.3 219.1,149.3 219.9,147.9 220.7,145.2 221.5,141.9 222.3,138.7 223.0,135.6 223.8,132.8 224.6,129.9 225.4,126.7 226.2,123.5 227.0,120.3 227.8,117.2 228.5,114.4 229.3,111.4 230.1,108.3 230.9,105.2 231.7,102.1 232.5,98.8 233.3,96.1 234.0,92.9 234.8,90.7 235.6,87.4 236.4,83.9 237.2,80.4 238.0,77.3 238.8,74.4 239.5,71.2 240.3,67.9 241.1,64.5 241.9,61.0 242.7,57.5 243.5,54.4 244.3,51.6 245.0,48.3 245.8,48.0 246.6,48.0 247.4,48.0 248.2,48.0 249.0,48.0 249.8,48.0 250.5,48.0 251.3,48.0 252.1,48.0 252.9,48.0 253.7,48.0 254.5,48.0 255.3,48.0 256.0,48.0 256.8,48.0 257.6,48.0 258.4,48.0 259.2,48.0 260.0,48.0 260.8,48.0 261.6,48.0 262.3,48.0 263.1,48.0 263.9,48.0 264.7,48.0 265.5,48.0 266.3,48.0 267.1,48.0 267.8,48.0 268.6,48.0 269.4,48.0 270.2,48.0 271.0,48.0 271.8,48.0 272.6,48.0 273.3,48.0 274.1,48.0 274.9,48.0 275.7,48.0 276.5,48.0 277.3,48.0 278.1,48.0 278.8,48.0 279.6,48.0 280.4,48.0 281.2,48.0 282.0,48.0 282.8,48.0 283.6,48.0 284.3,48.0 285.1,48.0 285.9,48.0 286.7,48.0 287.5,48.0 288.3,48.0 289.1,48.0 289.8,48.0 290.6,48.0 291.4,48.0 292.2,48.0 293.0,48.0 293.8,48.0 294.6,48.0 295.3,48.0 296.1,48.0 296.9,48.0 297.7,48.0 298.5,48.0 299.3,48.0 300.1,48.0 300.8,48.0 301.6,48.0 302.4,48.0 303.2,48.0 304.0,48.0 304.8,48.0 305.6,48.0 306.3,48.0 307.1,48.0 307.9,48.0 308.7,48.0 309.5,48.0 310.3,48.0 311.1,48.0 311.9,48.0 312.6,48.0 313.4,48.0 314.2,48.0 315.0,48.0 315.8,48.0 316.6,48.0 317.4,48.0 318.1,48.0 318.9,48.0 319.7,48.0 320.5,48.0 321.3,48.0 322.1,48.0 322.9,48.0 323.6,48.0 324.4,48.0 325.2,48.0 326.0,48.0 326.8,48.0 327.6,48.0 328.4,48.0 329.1,48.0 329.9,48.0 330.7,48.0 331.5,356.0 332.3,356.0 333.1,356.0 333.9,356.0 334.6,356.0 335.4,356.0 336.2,356.0 337.0,356.0 337.8,356.0 338.6,356.0 339.4,356.0 340.1,356.0 340.9,356.0 341.7,356.0 342.5,356.0 343.3,356.0 344.1,356.0 344.9,356.0 345.6,356.0 346.4,356.0 347.2,356.0 348.0,356.0 348.8,356.0 349.6,356.0 350.4,356.0 351.1,356.0 351.9,356.0 352.7,356.0 353.5,356.0 354.3,356.0 355.1,356.0 355.9,356.0 356.6,356.0 357.4,356.0 358.2,356.0 359.0,356.0 359.8,356.0 360.6,356.0 361.4,356.0 362.2,356.0 362.9,356.0 363.7,356.0 364.5,356.0 365.3,356.0 366.1,356.0 366.9,356.0 367.7,356.0 368.4,356.0 369.2,356.0 370.0,356.0 370.8,356.0 371.6,356.0 372.4,356.0 373.2,356.0 373.9,356.0 374.7,356.0 375.5,356.0 376.3,356.0 377.1,353.3 377.9,350.2 378.7,347.1 379.4,343.8 380.2,340.8 381.0,338.1 381.8,334.8 382.6,331.5 383.4,328.2 384.2,325.0 384.9,321.8 385.7,318.6 386.5,316.9 387.3,316.9 388.1,316.9 388.9,315.5 389.7,312.4 390.4,309.0 391.2,305.6 392.0,302.1 392.8,299.3 393.6,296.5 394.4,293.3 395.2,290.1 395.9,287.0 396.7,284.0 397.5,281.1 398.3,277.9 399.1,274.5 399.9,271.5 400.7,268.1 401.4,264.9 402.2,261.6 403.0,258.4 403.8,255.0 404.6,251.6 405.4,248.4 406.2,244.9 406.9,241.6 407.7,238.1 408.5,234.9 409.3,231.9 410.1,228.7 410.9,225.6 411.7,222.1 412.5,219.0 413.2,216.0 414.0,212.9 414.8,212.7 415.6,212.7 416.4,212.7 417.2,212.7 418.0,212.7 418.7,212.7 419.5,212.7 420.3,212.7 421.1,212.7 421.9,212.7 422.7,212.7 423.5,212.7 424.2,212.7 425.0,212.7 425.8,212.7 426.6,212.7 427.4,212.7 428.2,212.7 429.0,212.7 429.7,212.7 430.5,212.7 431.3,212.7 432.1,212.7 432.9,212.7 433.7,212.7 434.5,212.7 435.2,212.7 436.0,212.7 436.8,212.7 437.6,212.7 438.4,212.7 439.2,212.7 440.0,212.7 440.7,212.7 441.5,212.7 442.3,212.7 443.1,212.7 443.9,212.7 444.7,212.7 445.5,212.7 446.2,212.7 447.0,212.7 447.8,212.7 448.6,212.7 449.4,212.7 450.2,212.7 451.0,212.7 451.7,212.7 452.5,212.7 453.3,212.7 454.1,212.7 454.9,212.7 455.7,212.7 456.5,212.7 457.2,212.7 458.0,212.7 458.8,212.7 459.6,212.7 460.4,212.7 461.2,212.7 462.0,212.7 462.8,212.7 463.5,212.7 464.3,212.7 465.1,212.7 465.9,212.7 466.7,212.7 467.5,212.7 468.3,212.7 469.0,212.7 469.8,212.7 470.6,212.7 471.4,212.7 472.2,212.7 473.0,212.7 473.8,212.7 474.5,212.7 475.3,212.7 476.1,212.7 476.9,212.7 477.7,212.7 478.5,212.7 479.3,212.7 480.0,212.7 480.8,212.7 481.6,212.7 482.4,212.7 483.2,212.7 484.0,212.7 484.8,212.7 485.5,212.7 486.3,212.7 487.1,212.7 487.9,212.7 488.7,212.7 489.5,212.7 490.3,212.7 491.0,212.7 491.8,212.7 492.6,212.7 493.4,212.7 494.2,212.7 495.0,212.7 495.8,212.7 496.5,212.7 497.3,212.7 498.1,212.7 498.9,212.7 499.7,212.7 500.5,212.7 501.3,212.7 502.0,212.7 502.8,212.7 503.6,212.7 504.4,212.7 505.2,212.7 506.0,212.7 506.8,212.7 507.5,212.7 508.3,212.7 509.1,212.7 509.9,212.7 510.7,212.7 511.5,212.7 512.3,212.7 513.1,212.7 513.8,212.7 514.6,212.7 515.4,212.7 516.2,212.7 517.0,212.7 517.8,212.7 518.6,212.7 519.3,212.7 520.1,212.7 520.9,212.7 521.7,212.7 522.5,212.7 523.3,212.7 524.1,212.7 524.8,212.7 525.6,212.7 526.4,212.7 527.2,212.7 528.0,212.7 528.8,212.7 529.6,212.7 530.3,212.7 531.1,212.7 531.9,212.7 532.7,212.7 533.5,212.7 534.3,212.7 535.1,212.7 535.8,212.7 536.6,212.7 537.4,212.7 538.2,212.7 539.0,212.7 539.8,212.7 540.6,212.7 541.3,212.7 542.1,212.7 542.9,212.7 543.7,212.7 544.5,212.7 545.3,212.7 546.1,212.7 546.8,212.7 547.6,212.7 548.4,212.7 549.2,212.7 550.0,212.7 550.8,212.7 551.6,212.7 552.3,212.7 553.1,212.7 553.9,212.7 554.7,212.7 555.5,212.7 556.3,212.7 557.1,212.7 557.8,212.7 558.6,212.7 559.4,212.7 560.2,212.7 561.0,212.7 561.8,212.7 562.6,212.7 563.4,212.7 564.1,212.7 564.9,212.7 565.7,212.7 566.5,212.7 567.3,212.7 568.1,212.7 568.9,212.7 569.6,212.7 570.4,212.7 571.2,212.7 572.0,212.7 572.8,212.7 573.6,212.7 574.4,212.7 575.1,212.7 575.9,212.7 576.7,212.7 577.5,212.7 578.3,212.7 579.1,212.7 579.9,212.7 580.6,212.7 581.4,212.7 582.2,212.7 583.0,212.7 583.8,356.0 584.6,356.0 585.4,356.0 586.1,356.0 586.9,356.0 587.7,356.0 588.5,356.0 589.3,356.0 590.1,356.0 590.9,356.0 591.6,356.0 592.4,356.0 593.2,356.0 594.0,356.0 594.8,356.0 595.6,356.0 596.4,356.0 597.1,356.0 597.9,356.0 598.7,356.0 599.5,356.0 600.3,356.0 601.1,356.0 601.9,356.0 602.6,356.0 603.4,356.0 604.2,356.0 605.0,356.0 605.8,356.0 606.6,356.0 607.4,356.0 608.1,356.0 608.9,356.0 609.7,356.0 610.5,356.0 611.3,356.0 612.1,356.0 612.9,356.0 613.7,356.0 614.4,356.0 615.2,356.0 616.0,356.0 616.8,356.0 617.6,356.0 618.4,356.0 619.2,356.0 619.9,356.0 620.7,356.0 621.5,356.0 622.3,356.0 623.1,356.0 623.9,356.0 624.7,356.0 625.4,356.0 626.2,356.0 627.0,356.0 627.8,356.0 628.6,356.0 629.4,355.2 630.2,352.6 630.9,349.2 631.7,346.0 632.5,343.0 633.3,339.9 634.1,336.6 634.9,332.9 635.7,329.4 636.4,326.1 637.2,322.9 638.0,319.9 638.8,316.8 639.6,313.7 640.4,313.7 641.2,313.7 641.9,313.6 642.7,310.4 643.5,307.4 644.3,304.1 645.1,300.8 645.9,297.9 646.7,294.7 647.4,291.1 648.2,287.9 649.0,284.3 649.8,281.1 650.6,277.7 651.4,274.3 652.2,270.9 652.9,267.2 653.7,264.0 654.5,260.5 655.3,257.3 656.1,254.1 656.9,251.5 657.7,248.4 658.4,245.3 659.2,242.2 660.0,239.3 660.8,236.1 661.6,233.1 662.4,229.9 663.2,226.4 664.0,223.7 664.7,220.6 665.5,217.5 666.3,214.3 667.1,211.4 667.9,209.9 668.7,209.9 669.5,209.9 670.2,356.0 671.0,356.0 671.8,356.0 672.6,356.0 673.4,356.0 674.2,356.0 675.0,356.0 675.7,356.0 676.5,356.0 677.3,356.0 678.1,356.0 678.9,356.0 679.7,356.0 680.5,356.0 681.2,356.0 682.0,356.0 682.8,356.0 683.6,356.0 684.4,356.0 685.2,356.0 686.0,356.0 686.7,356.0 687.5,356.0 688.3,356.0 689.1,356.0 689.9,356.0 690.7,356.0 691.5,356.0 692.2,356.0 693.0,356.0 693.8,356.0 694.6,356.0 695.4,356.0 696.2,356.0 697.0,356.0 697.7,356.0 698.5,356.0 699.3,356.0 700.1,356.0 700.9,356.0 701.7,356.0 702.5,356.0 703.2,356.0 704.0,356.0 704.8,356.0 705.6,356.0 706.4,356.0 707.2,356.0 708.0,356.0 708.7,356.0 709.5,356.0 710.3,356.0 711.1,356.0 711.9,356.0 712.7,356.0 713.5,356.0 714.3,356.0 715.0,356.0 715.8,356.0 716.6,356.0 717.4,356.0 718.2,356.0 719.0,356.0 719.8,356.0 720.5,356.0 721.3,356.0 722.1,356.0 722.9,356.0 723.7,356.0 724.5,356.0 725.3,356.0 726.0,356.0 726.8,356.0 727.6,356.0 728.4,356.0 729.2,356.0 730.0,356.0 730.8,356.0 731.5,356.0 732.3,356.0 733.1,356.0 733.9,356.0 734.7,356.0 735.5,356.0 736.3,356.0 737.0,356.0 737.8,356.0 738.6,356.0 739.4,356.0 740.2,356.0 741.0,356.0 741.8,356.0 742.5,356.0 743.3,356.0 744.1,356.0 744.9,356.0 745.7,356.0 746.5,356.0 747.3,356.0 748.0,356.0 748.8,356.0 749.6,356.0 750.4,356.0 751.2,356.0 752.0,356.0 752.8,356.0 753.5,356.0 754.3,356.0 755.1,356.0 755.9,356.0 756.7,356.0 757.5,356.0 758.3,356.0 759.0,356.0 759.8,356.0 760.6,356.0 761.4,356.0 762.2,356.0 763.0,356.0 763.8,356.0 764.6,356.0 765.3,356.0 766.1,356.0 766.9,356.0 767.7,356.0 768.5,356.0 769.3,356.0 770.1,356.0 770.8,356.0 771.6,356.0 772.4,356.0 773.2,356.0 774.0,356.0 774.8,356.0 775.6,356.0 776.3,356.0 777.1,356.0 777.9,356.0 778.7,356.0 779.5,356.0 780.3,356.0 781.1,356.0 781.8,356.0 782.6,356.0 783.4,356.0 784.2,356.0 785.0,356.0 785.8,356.0 786.6,356.0 787.3,356.0 788.1,356.0 788.9,356.0 789.7,356.0 790.5,356.0 791.3,356.0 792.1,356.0 792.8,356.0 793.6,356.0 794.4,356.0 795.2,356.0 796.0,356.0 796.8,356.0 797.6,356.0 798.3,356.0 799.1,356.0 799.9,356.0 800.7,356.0 801.5,356.0 802.3,356.0 803.1,356.0 803.8,356.0 804.6,356.0 805.4,356.0 806.2,356.0 807.0,356.0 807.8,356.0 808.6,356.0 809.3,356.0 810.1,356.0 810.9,356.0 811.7,356.0 812.5,356.0 813.3,356.0 814.1,356.0 814.9,356.0 815.6,356.0 816.4,356.0 817.2,356.0 818.0,356.0 818.8,356.0 819.6,356.0 820.4,356.0 821.1,356.0 821.9,356.0 822.7,356.0 823.5,356.0 824.3,356.0 825.1,356.0 825.9,356.0 826.6,356.0 827.4,356.0 828.2,356.0 829.0,356.0 829.8,356.0 830.6,356.0 831.4,356.0 832.1,356.0 832.9,356.0 833.7,356.0 834.5,356.0 835.3,356.0 836.1,356.0 836.9,356.0 837.6,356.0 838.4,356.0 839.2,356.0 840.0,356.0"/>
<rect x="858" y="48" width="12" height="12" fill="#2563eb"/>
<text x="876" y="59" font-family="sans-serif" font-size="12">protected_drop</text>
<polyline fill="none" stroke="#dc2626" stroke-width="2" points="80.0,356.0 80.8,356.0 81.6,356.0 82.4,356.0 83.1,356.0 83.9,356.0 84.7,356.0 85.5,356.0 86.3,356.0 87.1,356.0 87.9,356.0 88.6,356.0 89.4,356.0 90.2,356.0 91.0,356.0 91.8,356.0 92.6,356.0 93.4,356.0 94.1,356.0 94.9,356.0 95.7,356.0 96.5,356.0 97.3,356.0 98.1,356.0 98.9,356.0 99.6,356.0 100.4,356.0 101.2,356.0 102.0,356.0 102.8,356.0 103.6,356.0 104.4,356.0 105.1,356.0 105.9,356.0 106.7,356.0 107.5,356.0 108.3,356.0 109.1,356.0 109.9,356.0 110.7,356.0 111.4,356.0 112.2,356.0 113.0,356.0 113.8,356.0 114.6,356.0 115.4,356.0 116.2,356.0 116.9,356.0 117.7,356.0 118.5,356.0 119.3,356.0 120.1,356.0 120.9,356.0 121.7,356.0 122.4,356.0 123.2,356.0 124.0,356.0 124.8,356.0 125.6,356.0 126.4,356.0 127.2,356.0 127.9,356.0 128.7,356.0 129.5,356.0 130.3,356.0 131.1,356.0 131.9,356.0 132.7,356.0 133.4,356.0 134.2,356.0 135.0,356.0 135.8,356.0 136.6,356.0 137.4,356.0 138.2,356.0 138.9,356.0 139.7,356.0 140.5,356.0 141.3,356.0 142.1,356.0 142.9,356.0 143.7,356.0 144.4,356.0 145.2,356.0 146.0,356.0 146.8,356.0 147.6,356.0 148.4,356.0 149.2,356.0 149.9,356.0 150.7,356.0 151.5,356.0 152.3,356.0 153.1,356.0 153.9,356.0 154.7,356.0 155.4,356.0 156.2,356.0 157.0,356.0 157.8,356.0 158.6,356.0 159.4,356.0 160.2,356.0 161.0,356.0 161.7,356.0 162.5,356.0 163.3,356.0 164.1,356.0 164.9,356.0 165.7,356.0 166.5,356.0 167.2,356.0 168.0,356.0 168.8,356.0 169.6,356.0 170.4,356.0 171.2,356.0 172.0,356.0 172.7,356.0 173.5,356.0 174.3,356.0 175.1,356.0 175.9,356.0 176.7,356.0 177.5,356.0 178.2,356.0 179.0,356.0 179.8,356.0 180.6,356.0 181.4,356.0 182.2,356.0 183.0,356.0 183.7,356.0 184.5,356.0 185.3,356.0 186.1,356.0 186.9,356.0 187.7,356.0 188.5,356.0 189.2,356.0 190.0,356.0 190.8,356.0 191.6,356.0 192.4,356.0 193.2,356.0 194.0,356.0 194.7,356.0 195.5,356.0 196.3,356.0 197.1,356.0 197.9,356.0 198.7,356.0 199.5,356.0 200.2,356.0 201.0,356.0 201.8,356.0 202.6,356.0 203.4,356.0 204.2,356.0 205.0,356.0 205.7,356.0 206.5,356.0 207.3,356.0 208.1,356.0 208.9,356.0 209.7,356.0 210.5,356.0 211.3,356.0 212.0,356.0 212.8,356.0 213.6,356.0 214.4,356.0 215.2,356.0 216.0,356.0 216.8,356.0 217.5,356.0 218.3,356.0 219.1,356.0 219.9,356.0 220.7,356.0 221.5,356.0 222.3,356.0 223.0,356.0 223.8,356.0 224.6,356.0 225.4,356.0 226.2,356.0 227.0,356.0 227.8,356.0 228.5,356.0 229.3,356.0 230.1,356.0 230.9,356.0 231.7,356.0 232.5,356.0 233.3,356.0 234.0,356.0 234.8,356.0 235.6,356.0 236.4,356.0 237.2,356.0 238.0,356.0 238.8,356.0 239.5,356.0 240.3,356.0 241.1,356.0 241.9,356.0 242.7,356.0 243.5,356.0 244.3,356.0 245.0,356.0 245.8,356.0 246.6,356.0 247.4,356.0 248.2,356.0 249.0,356.0 249.8,356.0 250.5,356.0 251.3,356.0 252.1,356.0 252.9,356.0 253.7,356.0 254.5,356.0 255.3,356.0 256.0,356.0 256.8,356.0 257.6,356.0 258.4,356.0 259.2,356.0 260.0,356.0 260.8,356.0 261.6,356.0 262.3,356.0 263.1,356.0 263.9,356.0 264.7,356.0 265.5,356.0 266.3,356.0 267.1,356.0 267.8,356.0 268.6,356.0 269.4,356.0 270.2,356.0 271.0,356.0 271.8,356.0 272.6,356.0 273.3,356.0 274.1,356.0 274.9,356.0 275.7,356.0 276.5,356.0 277.3,356.0 278.1,356.0 278.8,356.0 279.6,356.0 280.4,356.0 281.2,356.0 282.0,356.0 282.8,356.0 283.6,356.0 284.3,356.0 285.1,356.0 285.9,356.0 286.7,356.0 287.5,356.0 288.3,356.0 289.1,356.0 289.8,356.0 290.6,356.0 291.4,356.0 292.2,356.0 293.0,356.0 293.8,356.0 294.6,356.0 295.3,356.0 296.1,356.0 296.9,356.0 297.7,356.0 298.5,356.0 299.3,356.0 300.1,356.0 300.8,356.0 301.6,356.0 302.4,356.0 303.2,356.0 304.0,356.0 304.8,356.0 305.6,356.0 306.3,356.0 307.1,356.0 307.9,356.0 308.7,356.0 309.5,356.0 310.3,356.0 311.1,356.0 311.9,356.0 312.6,356.0 313.4,356.0 314.2,356.0 315.0,356.0 315.8,356.0 316.6,356.0 317.4,356.0 318.1,356.0 318.9,356.0 319.7,356.0 320.5,356.0 321.3,356.0 322.1,356.0 322.9,356.0 323.6,356.0 324.4,356.0 325.2,356.0 326.0,356.0 326.8,356.0 327.6,356.0 328.4,356.0 329.1,356.0 329.9,356.0 330.7,356.0 331.5,356.0 332.3,356.0 333.1,354.8 333.9,352.0 334.6,348.9 335.4,345.7 336.2,342.6 337.0,340.4 337.8,337.4 338.6,334.3 339.4,331.3 340.1,328.2 340.9,324.9 341.7,321.9 342.5,319.0 343.3,315.8 344.1,312.8 344.9,309.7 345.6,306.6 346.4,303.4 347.2,300.1 348.0,296.7 348.8,293.6 349.6,290.5 350.4,287.6 351.1,285.4 351.9,282.5 352.7,279.7 353.5,276.8 354.3,273.5 355.1,270.0 355.9,267.0 356.6,263.9 357.4,260.9 358.2,258.1 359.0,257.9 359.8,257.9 360.6,257.9 361.4,254.5 362.2,251.3 362.9,248.3 363.7,245.2 364.5,242.4 365.3,239.7 366.1,237.5 366.9,234.6 367.7,231.8 368.4,228.8 369.2,225.8 370.0,222.7 370.8,219.7 371.6,216.7 372.4,213.7 373.2,210.5 373.9,207.3 374.7,204.5 375.5,201.6 376.3,198.6 377.1,198.3 377.9,198.3 378.7,198.3 379.4,198.3 380.2,198.3 381.0,198.3 381.8,198.3 382.6,198.3 383.4,198.3 384.2,198.3 384.9,198.3 385.7,198.3 386.5,198.3 387.3,198.3 388.1,198.3 388.9,198.3 389.7,198.3 390.4,198.3 391.2,198.3 392.0,198.3 392.8,198.3 393.6,198.3 394.4,198.3 395.2,198.3 395.9,198.3 396.7,198.3 397.5,198.3 398.3,198.3 399.1,198.3 399.9,198.3 400.7,198.3 401.4,198.3 402.2,198.3 403.0,198.3 403.8,198.3 404.6,198.3 405.4,198.3 406.2,198.3 406.9,198.3 407.7,198.3 408.5,198.3 409.3,198.3 410.1,198.3 410.9,198.3 411.7,198.3 412.5,198.3 413.2,198.3 414.0,198.3 414.8,198.3 415.6,198.3 416.4,198.3 417.2,198.3 418.0,198.3 418.7,198.3 419.5,198.3 420.3,198.3 421.1,198.3 421.9,198.3 422.7,198.3 423.5,198.3 424.2,198.3 425.0,198.3 425.8,198.3 426.6,198.3 427.4,198.3 428.2,198.3 429.0,198.3 429.7,198.3 430.5,198.3 431.3,198.3 432.1,198.3 432.9,198.3 433.7,198.3 434.5,198.3 435.2,198.3 436.0,198.3 436.8,198.3 437.6,198.3 438.4,198.3 439.2,198.3 440.0,198.3 440.7,198.3 441.5,198.3 442.3,198.3 443.1,198.3 443.9,198.3 444.7,198.3 445.5,198.3 446.2,198.3 447.0,198.3 447.8,198.3 448.6,198.3 449.4,198.3 450.2,198.3 451.0,198.3 451.7,198.3 452.5,198.3 453.3,198.3 454.1,198.3 454.9,198.3 455.7,198.3 456.5,198.3 457.2,198.3 458.0,198.3 458.8,198.3 459.6,198.3 460.4,198.3 461.2,198.3 462.0,198.3 462.8,198.3 463.5,198.3 464.3,198.3 465.1,198.3 465.9,198.3 466.7,198.3 467.5,198.3 468.3,198.3 469.0,198.3 469.8,198.3 470.6,198.3 471.4,198.3 472.2,198.3 473.0,198.3 473.8,198.3 474.5,198.3 475.3,198.3 476.1,198.3 476.9,198.3 477.7,198.3 478.5,198.3 479.3,198.3 480.0,198.3 480.8,198.3 481.6,198.3 482.4,198.3 483.2,198.3 484.0,198.3 484.8,198.3 485.5,198.3 486.3,198.3 487.1,198.3 487.9,198.3 488.7,198.3 489.5,198.3 490.3,198.3 491.0,198.3 491.8,198.3 492.6,198.3 493.4,198.3 494.2,198.3 495.0,198.3 495.8,198.3 496.5,198.3 497.3,198.3 498.1,198.3 498.9,198.3 499.7,198.3 500.5,198.3 501.3,198.3 502.0,198.3 502.8,198.3 503.6,198.3 504.4,198.3 505.2,198.3 506.0,198.3 506.8,198.3 507.5,198.3 508.3,198.3 509.1,198.3 509.9,198.3 510.7,198.3 511.5,198.3 512.3,198.3 513.1,198.3 513.8,198.3 514.6,198.3 515.4,198.3 516.2,198.3 517.0,198.3 517.8,198.3 518.6,198.3 519.3,198.3 520.1,198.3 520.9,198.3 521.7,198.3 522.5,198.3 523.3,198.3 524.1,198.3 524.8,198.3 525.6,198.3 526.4,198.3 527.2,198.3 528.0,198.3 528.8,198.3 529.6,198.3 530.3,198.3 531.1,198.3 531.9,198.3 532.7,198.3 533.5,198.3 534.3,198.3 535.1,198.3 535.8,198.3 536.6,198.3 537.4,198.3 538.2,198.3 539.0,198.3 539.8,198.3 540.6,198.3 541.3,198.3 542.1,198.3 542.9,198.3 543.7,198.3 544.5,198.3 545.3,198.3 546.1,198.3 546.8,198.3 547.6,198.3 548.4,198.3 549.2,198.3 550.0,198.3 550.8,198.3 551.6,198.3 552.3,198.3 553.1,198.3 553.9,198.3 554.7,198.3 555.5,198.3 556.3,198.3 557.1,198.3 557.8,198.3 558.6,198.3 559.4,198.3 560.2,198.3 561.0,198.3 561.8,198.3 562.6,198.3 563.4,198.3 564.1,198.3 564.9,198.3 565.7,198.3 566.5,198.3 567.3,198.3 568.1,198.3 568.9,198.3 569.6,198.3 570.4,198.3 571.2,198.3 572.0,198.3 572.8,198.3 573.6,198.3 574.4,198.3 575.1,198.3 575.9,198.3 576.7,198.3 577.5,198.3 578.3,198.3 579.1,198.3 579.9,198.3 580.6,198.3 581.4,198.3 582.2,198.3 583.0,198.3 583.8,356.0 584.6,356.0 585.4,356.0 586.1,355.8 586.9,353.3 587.7,350.1 588.5,346.9 589.3,343.8 590.1,340.9 590.9,337.9 591.6,335.0 592.4,332.2 593.2,329.4 594.0,326.3 594.8,323.4 595.6,320.3 596.4,317.3 597.1,314.6 597.9,311.6 598.7,309.3 599.5,306.4 600.3,303.7 601.1,301.0 601.9,298.0 602.6,295.1 603.4,292.1 604.2,289.2 605.0,286.3 605.8,283.4 606.6,280.4 607.4,277.1 608.1,274.1 608.9,271.3 609.7,268.4 610.5,265.3 611.3,262.8 612.1,261.4 612.9,261.4 613.7,261.4 614.4,259.7 615.2,256.6 616.0,253.6 616.8,250.4 617.6,247.3 618.4,244.4 619.2,241.6 619.9,238.7 620.7,235.5 621.5,232.3 622.3,229.4 623.1,226.6 623.9,223.7 624.7,220.8 625.4,217.4 626.2,214.3 627.0,211.0 627.8,208.8 628.6,205.8 629.4,203.6 630.2,203.3 630.9,203.3 631.7,203.3 632.5,203.3 633.3,203.3 634.1,203.3 634.9,203.3 635.7,203.3 636.4,203.3 637.2,203.3 638.0,203.3 638.8,203.3 639.6,203.3 640.4,203.3 641.2,203.3 641.9,203.3 642.7,203.3 643.5,203.3 644.3,203.3 645.1,203.3 645.9,203.3 646.7,203.3 647.4,203.3 648.2,203.3 649.0,203.3 649.8,203.3 650.6,203.3 651.4,203.3 652.2,203.3 652.9,203.3 653.7,203.3 654.5,203.3 655.3,203.3 656.1,203.3 656.9,203.3 657.7,203.3 658.4,203.3 659.2,203.3 660.0,203.3 660.8,203.3 661.6,203.3 662.4,203.3 663.2,203.3 664.0,203.3 664.7,203.3 665.5,203.3 666.3,203.3 667.1,203.3 667.9,203.3 668.7,203.3 669.5,203.3 670.2,356.0 671.0,356.0 671.8,356.0 672.6,356.0 673.4,356.0 674.2,356.0 675.0,356.0 675.7,356.0 676.5,356.0 677.3,356.0 678.1,356.0 678.9,356.0 679.7,356.0 680.5,356.0 681.2,356.0 682.0,356.0 682.8,356.0 683.6,356.0 684.4,356.0 685.2,356.0 686.0,356.0 686.7,356.0 687.5,356.0 688.3,356.0 689.1,356.0 689.9,356.0 690.7,356.0 691.5,356.0 692.2,356.0 693.0,356.0 693.8,356.0 694.6,356.0 695.4,356.0 696.2,356.0 697.0,356.0 697.7,356.0 698.5,356.0 699.3,356.0 700.1,356.0 700.9,356.0 701.7,356.0 702.5,356.0 703.2,356.0 704.0,356.0 704.8,356.0 705.6,356.0 706.4,356.0 707.2,356.0 708.0,356.0 708.7,356.0 709.5,356.0 710.3,356.0 711.1,356.0 711.9,356.0 712.7,356.0 713.5,356.0 714.3,356.0 715.0,356.0 715.8,356.0 716.6,356.0 717.4,356.0 718.2,356.0 719.0,356.0 719.8,356.0 720.5,356.0 721.3,356.0 722.1,356.0 722.9,356.0 723.7,356.0 724.5,356.0 725.3,356.0 726.0,356.0 726.8,356.0 727.6,356.0 728.4,356.0 729.2,356.0 730.0,356.0 730.8,356.0 731.5,356.0 732.3,356.0 733.1,356.0 733.9,356.0 734.7,356.0 735.5,356.0 736.3,356.0 737.0,356.0 737.8,356.0 738.6,356.0 739.4,356.0 740.2,356.0 741.0,356.0 741.8,356.0 742.5,356.0 743.3,356.0 744.1,356.0 744.9,356.0 745.7,356.0 746.5,356.0 747.3,356.0 748.0,356.0 748.8,356.0 749.6,356.0 750.4,356.0 751.2,356.0 752.0,356.0 752.8,356.0 753.5,356.0 754.3,356.0 755.1,356.0 755.9,356.0 756.7,356.0 757.5,356.0 758.3,356.0 759.0,356.0 759.8,356.0 760.6,356.0 761.4,356.0 762.2,356.0 763.0,356.0 763.8,356.0 764.6,356.0 765.3,356.0 766.1,356.0 766.9,356.0 767.7,356.0 768.5,356.0 769.3,356.0 770.1,356.0 770.8,356.0 771.6,356.0 772.4,356.0 773.2,356.0 774.0,356.0 774.8,356.0 775.6,356.0 776.3,356.0 777.1,356.0 777.9,356.0 778.7,356.0 779.5,356.0 780.3,356.0 781.1,356.0 781.8,356.0 782.6,356.0 783.4,356.0 784.2,356.0 785.0,356.0 785.8,356.0 786.6,356.0 787.3,356.0 788.1,356.0 788.9,356.0 789.7,356.0 790.5,356.0 791.3,356.0 792.1,356.0 792.8,356.0 793.6,356.0 794.4,356.0 795.2,356.0 796.0,356.0 796.8,356.0 797.6,356.0 798.3,356.0 799.1,356.0 799.9,356.0 800.7,356.0 801.5,356.0 802.3,356.0 803.1,356.0 803.8,356.0 804.6,356.0 805.4,356.0 806.2,356.0 807.0,356.0 807.8,356.0 808.6,356.0 809.3,356.0 810.1,356.0 810.9,356.0 811.7,356.0 812.5,356.0 813.3,356.0 814.1,356.0 814.9,356.0 815.6,356.0 816.4,356.0 817.2,356.0 818.0,356.0 818.8,356.0 819.6,356.0 820.4,356.0 821.1,356.0 821.9,356.0 822.7,356.0 823.5,356.0 824.3,356.0 825.1,356.0 825.9,356.0 826.6,356.0 827.4,356.0 828.2,356.0 829.0,356.0 829.8,356.0 830.6,356.0 831.4,356.0 832.1,356.0 832.9,356.0 833.7,356.0 834.5,356.0 835.3,356.0 836.1,356.0 836.9,356.0 837.6,356.0 838.4,356.0 839.2,356.0 840.0,356.0"/>
<rect x="858" y="70" width="12" height="12" fill="#dc2626"/>
<text x="876" y="81" font-family="sans-serif" font-size="12">protected_pass</text>
<polyline fill="none" stroke="#059669" stroke-width="2" points="80.0,356.0 80.8,356.0 81.6,356.0 82.4,356.0 83.1,356.0 83.9,356.0 84.7,356.0 85.5,356.0 86.3,356.0 87.1,356.0 87.9,356.0 88.6,356.0 89.4,356.0 90.2,356.0 91.0,356.0 91.8,356.0 92.6,356.0 93.4,356.0 94.1,356.0 94.9,356.0 95.7,356.0 96.5,356.0 97.3,356.0 98.1,356.0 98.9,356.0 99.6,356.0 100.4,356.0 101.2,356.0 102.0,356.0 102.8,356.0 103.6,356.0 104.4,356.0 105.1,356.0 105.9,356.0 106.7,356.0 107.5,356.0 108.3,356.0 109.1,356.0 109.9,356.0 110.7,356.0 111.4,356.0 112.2,356.0 113.0,356.0 113.8,356.0 114.6,356.0 115.4,356.0 116.2,356.0 116.9,356.0 117.7,356.0 118.5,356.0 119.3,356.0 120.1,356.0 120.9,356.0 121.7,356.0 122.4,356.0 123.2,356.0 124.0,356.0 124.8,356.0 125.6,356.0 126.4,356.0 127.2,356.0 127.9,356.0 128.7,356.0 129.5,356.0 130.3,356.0 131.1,356.0 131.9,356.0 132.7,356.0 133.4,356.0 134.2,356.0 135.0,356.0 135.8,356.0 136.6,356.0 137.4,356.0 138.2,356.0 138.9,356.0 139.7,356.0 140.5,356.0 141.3,356.0 142.1,356.0 142.9,356.0 143.7,356.0 144.4,356.0 145.2,356.0 146.0,356.0 146.8,356.0 147.6,356.0 148.4,356.0 149.2,356.0 149.9,356.0 150.7,356.0 151.5,356.0 152.3,356.0 153.1,356.0 153.9,356.0 154.7,356.0 155.4,356.0 156.2,356.0 157.0,356.0 157.8,356.0 158.6,356.0 159.4,356.0 160.2,356.0 161.0,356.0 161.7,356.0 162.5,356.0 163.3,356.0 164.1,356.0 164.9,356.0 165.7,356.0 166.5,356.0 167.2,356.0 168.0,356.0 168.8,356.0 169.6,356.0 170.4,356.0 171.2,356.0 172.0,356.0 172.7,356.0 173.5,356.0 174.3,356.0 175.1,356.0 175.9,356.0 176.7,356.0 177.5,356.0 178.2,356.0 179.0,356.0 179.8,356.0 180.6,356.0 181.4,356.0 182.2,356.0 183.0,356.0 183.7,356.0 184.5,356.0 185.3,356.0 186.1,356.0 186.9,356.0 187.7,356.0 188.5,356.0 189.2,356.0 190.0,356.0 190.8,356.0 191.6,356.0 192.4,356.0 193.2,356.0 194.0,356.0 194.7,356.0 195.5,356.0 196.3,356.0 197.1,356.0 197.9,356.0 198.7,356.0 199.5,356.0 200.2,356.0 201.0,356.0 201.8,356.0 202.6,356.0 203.4,356.0 204.2,356.0 205.0,356.0 205.7,356.0 206.5,356.0 207.3,356.0 208.1,356.0 208.9,356.0 209.7,356.0 210.5,356.0 211.3,356.0 212.0,356.0 212.8,356.0 213.6,356.0 214.4,356.0 215.2,356.0 216.0,356.0 216.8,356.0 217.5,356.0 218.3,356.0 219.1,356.0 219.9,356.0 220.7,356.0 221.5,356.0 222.3,356.0 223.0,356.0 223.8,356.0 224.6,356.0 225.4,356.0 226.2,356.0 227.0,356.0 227.8,356.0 228.5,356.0 229.3,356.0 230.1,356.0 230.9,356.0 231.7,356.0 232.5,356.0 233.3,356.0 234.0,356.0 234.8,356.0 235.6,356.0 236.4,356.0 237.2,356.0 238.0,356.0 238.8,356.0 239.5,356.0 240.3,356.0 241.1,356.0 241.9,356.0 242.7,356.0 243.5,356.0 244.3,356.0 245.0,356.0 245.8,356.0 246.6,356.0 247.4,356.0 248.2,355.5 249.0,355.5 249.8,355.5 250.5,355.5 251.3,355.5 252.1,355.5 252.9,355.5 253.7,355.5 254.5,355.5 255.3,355.1 256.0,355.1 256.8,355.1 257.6,355.1 258.4,355.1 259.2,355.1 260.0,355.1 260.8,355.1 261.6,355.1 262.3,354.6 263.1,354.6 263.9,354.6 264.7,354.6 265.5,354.6 266.3,354.6 267.1,354.6 267.8,354.6 268.6,354.6 269.4,354.2 270.2,354.1 271.0,354.1 271.8,354.1 272.6,354.1 273.3,354.1 274.1,354.1 274.9,354.1 275.7,354.1 276.5,354.1 277.3,353.6 278.1,353.6 278.8,353.6 279.6,353.6 280.4,353.6 281.2,353.6 282.0,353.6 282.8,353.6 283.6,353.6 284.3,353.2 285.1,353.2 285.9,353.2 286.7,353.2 287.5,353.2 288.3,353.2 289.1,353.2 289.8,353.2 290.6,353.2 291.4,352.7 292.2,352.7 293.0,352.7 293.8,352.7 294.6,352.7 295.3,352.7 296.1,352.7 296.9,352.7 297.7,352.7 298.5,352.6 299.3,352.2 300.1,352.2 300.8,352.2 301.6,352.2 302.4,352.2 303.2,352.2 304.0,352.2 304.8,352.2 305.6,352.2 306.3,351.7 307.1,351.7 307.9,351.7 308.7,351.7 309.5,351.7 310.3,351.7 311.1,351.7 311.9,351.7 312.6,351.7 313.4,351.3 314.2,351.3 315.0,351.3 315.8,351.3 316.6,351.3 317.4,351.3 318.1,351.3 318.9,351.3 319.7,351.3 320.5,350.8 321.3,350.8 322.1,350.8 322.9,350.8 323.6,350.8 324.4,350.8 325.2,350.8 326.0,350.8 326.8,350.8 327.6,350.8 328.4,350.3 329.1,350.3 329.9,350.3 330.7,350.3 331.5,356.0 332.3,356.0 333.1,356.0 333.9,356.0 334.6,356.0 335.4,356.0 336.2,356.0 337.0,356.0 337.8,356.0 338.6,356.0 339.4,356.0 340.1,356.0 340.9,356.0 341.7,356.0 342.5,356.0 343.3,356.0 344.1,356.0 344.9,356.0 345.6,356.0 346.4,356.0 347.2,356.0 348.0,356.0 348.8,356.0 349.6,356.0 350.4,356.0 351.1,356.0 351.9,356.0 352.7,356.0 353.5,356.0 354.3,356.0 355.1,356.0 355.9,356.0 356.6,356.0 357.4,356.0 358.2,356.0 359.0,356.0 359.8,356.0 360.6,356.0 361.4,356.0 362.2,356.0 362.9,356.0 363.7,356.0 364.5,356.0 365.3,356.0 366.1,356.0 366.9,356.0 367.7,356.0 368.4,356.0 369.2,356.0 370.0,356.0 370.8,356.0 371.6,356.0 372.4,356.0 373.2,356.0 373.9,356.0 374.7,356.0 375.5,356.0 376.3,356.0 377.1,356.0 377.9,356.0 378.7,356.0 379.4,356.0 380.2,356.0 381.0,356.0 381.8,356.0 382.6,356.0 383.4,356.0 384.2,356.0 384.9,356.0 385.7,356.0 386.5,356.0 387.3,356.0 388.1,356.0 388.9,356.0 389.7,356.0 390.4,356.0 391.2,356.0 392.0,356.0 392.8,356.0 393.6,356.0 394.4,356.0 395.2,356.0 395.9,356.0 396.7,356.0 397.5,356.0 398.3,356.0 399.1,356.0 399.9,356.0 400.7,356.0 401.4,356.0 402.2,356.0 403.0,356.0 403.8,356.0 404.6,356.0 405.4,356.0 406.2,356.0 406.9,356.0 407.7,356.0 408.5,356.0 409.3,356.0 410.1,356.0 410.9,356.0 411.7,356.0 412.5,356.0 413.2,356.0 414.0,356.0 414.8,356.0 415.6,356.0 416.4,356.0 417.2,356.0 418.0,356.0 418.7,356.0 419.5,356.0 420.3,356.0 421.1,356.0 421.9,356.0 422.7,356.0 423.5,356.0 424.2,356.0 425.0,356.0 425.8,356.0 426.6,356.0 427.4,356.0 428.2,356.0 429.0,356.0 429.7,356.0 430.5,356.0 431.3,356.0 432.1,356.0 432.9,356.0 433.7,356.0 434.5,356.0 435.2,356.0 436.0,356.0 436.8,356.0 437.6,356.0 438.4,356.0 439.2,356.0 440.0,356.0 440.7,356.0 441.5,356.0 442.3,356.0 443.1,356.0 443.9,356.0 444.7,356.0 445.5,356.0 446.2,356.0 447.0,356.0 447.8,356.0 448.6,356.0 449.4,356.0 450.2,356.0 451.0,356.0 451.7,356.0 452.5,356.0 453.3,356.0 454.1,356.0 454.9,356.0 455.7,356.0 456.5,356.0 457.2,356.0 458.0,356.0 458.8,356.0 459.6,356.0 460.4,356.0 461.2,356.0 462.0,356.0 462.8,356.0 463.5,356.0 464.3,356.0 465.1,356.0 465.9,356.0 466.7,356.0 467.5,356.0 468.3,356.0 469.0,356.0 469.8,356.0 470.6,356.0 471.4,356.0 472.2,356.0 473.0,356.0 473.8,356.0 474.5,356.0 475.3,356.0 476.1,356.0 476.9,356.0 477.7,356.0 478.5,356.0 479.3,356.0 480.0,356.0 480.8,356.0 481.6,356.0 482.4,356.0 483.2,356.0 484.0,356.0 484.8,356.0 485.5,356.0 486.3,356.0 487.1,356.0 487.9,356.0 488.7,356.0 489.5,356.0 490.3,356.0 491.0,356.0 491.8,356.0 492.6,356.0 493.4,356.0 494.2,356.0 495.0,356.0 495.8,356.0 496.5,356.0 497.3,356.0 498.1,356.0 498.9,356.0 499.7,356.0 500.5,356.0 501.3,356.0 502.0,356.0 502.8,356.0 503.6,356.0 504.4,356.0 505.2,356.0 506.0,356.0 506.8,356.0 507.5,356.0 508.3,356.0 509.1,356.0 509.9,356.0 510.7,356.0 511.5,356.0 512.3,356.0 513.1,356.0 513.8,356.0 514.6,356.0 515.4,356.0 516.2,356.0 517.0,356.0 517.8,356.0 518.6,356.0 519.3,356.0 520.1,356.0 520.9,356.0 521.7,356.0 522.5,356.0 523.3,356.0 524.1,356.0 524.8,356.0 525.6,356.0 526.4,356.0 527.2,356.0 528.0,356.0 528.8,356.0 529.6,356.0 530.3,356.0 531.1,356.0 531.9,356.0 532.7,356.0 533.5,356.0 534.3,356.0 535.1,356.0 535.8,356.0 536.6,356.0 537.4,356.0 538.2,356.0 539.0,356.0 539.8,356.0 540.6,356.0 541.3,356.0 542.1,356.0 542.9,356.0 543.7,356.0 544.5,356.0 545.3,356.0 546.1,356.0 546.8,356.0 547.6,356.0 548.4,356.0 549.2,356.0 550.0,356.0 550.8,356.0 551.6,356.0 552.3,356.0 553.1,356.0 553.9,356.0 554.7,356.0 555.5,356.0 556.3,356.0 557.1,356.0 557.8,356.0 558.6,356.0 559.4,356.0 560.2,356.0 561.0,356.0 561.8,356.0 562.6,356.0 563.4,356.0 564.1,356.0 564.9,356.0 565.7,356.0 566.5,356.0 567.3,356.0 568.1,356.0 568.9,356.0 569.6,356.0 570.4,356.0 571.2,356.0 572.0,356.0 572.8,356.0 573.6,356.0 574.4,356.0 575.1,356.0 575.9,356.0 576.7,356.0 577.5,356.0 578.3,356.0 579.1,356.0 579.9,356.0 580.6,356.0 581.4,356.0 582.2,356.0 583.0,356.0 583.8,356.0 584.6,356.0 585.4,356.0 586.1,356.0 586.9,356.0 587.7,356.0 588.5,356.0 589.3,356.0 590.1,356.0 590.9,356.0 591.6,356.0 592.4,356.0 593.2,356.0 594.0,356.0 594.8,356.0 595.6,356.0 596.4,356.0 597.1,356.0 597.9,356.0 598.7,356.0 599.5,356.0 600.3,356.0 601.1,356.0 601.9,356.0 602.6,356.0 603.4,356.0 604.2,356.0 605.0,356.0 605.8,356.0 606.6,356.0 607.4,356.0 608.1,356.0 608.9,356.0 609.7,356.0 610.5,356.0 611.3,356.0 612.1,356.0 612.9,356.0 613.7,356.0 614.4,356.0 615.2,356.0 616.0,356.0 616.8,356.0 617.6,356.0 618.4,356.0 619.2,356.0 619.9,356.0 620.7,356.0 621.5,356.0 622.3,356.0 623.1,356.0 623.9,356.0 624.7,356.0 625.4,356.0 626.2,356.0 627.0,356.0 627.8,356.0 628.6,356.0 629.4,356.0 630.2,356.0 630.9,356.0 631.7,356.0 632.5,356.0 633.3,356.0 634.1,356.0 634.9,356.0 635.7,356.0 636.4,356.0 637.2,356.0 638.0,356.0 638.8,356.0 639.6,356.0 640.4,356.0 641.2,356.0 641.9,356.0 642.7,356.0 643.5,356.0 644.3,356.0 645.1,356.0 645.9,356.0 646.7,356.0 647.4,356.0 648.2,356.0 649.0,356.0 649.8,356.0 650.6,356.0 651.4,356.0 652.2,356.0 652.9,356.0 653.7,356.0 654.5,356.0 655.3,356.0 656.1,356.0 656.9,356.0 657.7,356.0 658.4,356.0 659.2,356.0 660.0,356.0 660.8,356.0 661.6,356.0 662.4,356.0 663.2,356.0 664.0,356.0 664.7,356.0 665.5,356.0 666.3,356.0 667.1,356.0 667.9,356.0 668.7,356.0 669.5,356.0 670.2,356.0 671.0,356.0 671.8,355.2 672.6,354.0 673.4,352.8 674.2,351.6 675.0,350.5 675.7,349.3 676.5,348.2 677.3,347.0 678.1,345.8 678.9,344.7 679.7,343.6 680.5,342.5 681.2,341.5 682.0,340.4 682.8,339.3 683.6,338.3 684.4,337.3 685.2,336.2 686.0,335.3 686.7,334.4 687.5,333.3 688.3,332.2 689.1,331.2 689.9,330.0 690.7,329.0 691.5,327.8 692.2,326.7 693.0,325.6 693.8,324.5 694.6,323.5 695.4,322.5 696.2,321.4 697.0,320.4 697.7,320.4 698.5,320.4 699.3,320.1 700.1,319.0 700.9,318.1 701.7,317.0 702.5,315.9 703.2,314.8 704.0,313.6 704.8,312.5 705.6,311.4 706.4,310.3 707.2,309.2 708.0,308.1 708.7,307.0 709.5,305.9 710.3,304.8 711.1,303.8 711.9,302.6 712.7,301.6 713.5,300.5 714.3,299.4 715.0,298.3 715.8,297.3 716.6,296.3 717.4,295.4 718.2,294.2 719.0,293.1 719.8,291.9 720.5,290.8 721.3,289.7 722.1,288.5 722.9,287.2 723.7,286.1 724.5,285.1 725.3,284.9 726.0,284.9 726.8,284.9 727.6,284.0 728.4,282.9 729.2,281.8 730.0,280.9 730.8,279.8 731.5,278.7 732.3,277.7 733.1,276.6 733.9,275.5 734.7,274.4 735.5,273.2 736.3,272.0 737.0,270.9 737.8,269.8 738.6,268.6 739.4,267.6 740.2,266.5 741.0,265.4 741.8,264.2 742.5,263.2 743.3,262.1 744.1,261.2 744.9,260.1 745.7,259.1 746.5,258.0 747.3,256.8 748.0,255.8 748.8,254.7 749.6,253.7 750.4,252.6 751.2,251.8 752.0,250.7 752.8,249.7 753.5,249.7 754.3,249.7 755.1,356.0 755.9,356.0 756.7,355.6 757.5,354.3 758.3,353.2 759.0,352.4 759.8,351.3 760.6,350.3 761.4,349.2 762.2,348.0 763.0,346.8 763.8,345.5 764.6,344.5 765.3,343.4 766.1,342.4 766.9,341.4 767.7,340.3 768.5,339.2 769.3,338.1 770.1,336.9 770.8,335.9 771.6,334.7 772.4,333.6 773.2,332.7 774.0,331.8 774.8,330.8 775.6,329.7 776.3,328.6 777.1,327.5 777.9,326.4 778.7,325.2 779.5,324.0 780.3,323.0 781.1,321.8 781.8,320.7 782.6,320.4 783.4,320.4 784.2,320.4 785.0,319.7 785.8,318.6 786.6,317.4 787.3,316.2 788.1,315.2 788.9,314.1 789.7,313.0 790.5,311.9 791.3,310.7 792.1,309.5 792.8,308.4 793.6,307.3 794.4,306.3 795.2,305.3 796.0,304.3 796.8,303.1 797.6,302.2 798.3,301.1 799.1,300.0 799.9,298.9 800.7,297.8 801.5,296.7 802.3,295.8 803.1,294.8 803.8,293.7 804.6,292.6 805.4,291.5 806.2,290.4 807.0,289.3 807.8,288.1 808.6,287.1 809.3,286.0 810.1,285.1 810.9,285.1 811.7,285.1 812.5,284.9 813.3,283.7 814.1,282.6 814.9,281.4 815.6,280.2 816.4,279.2 817.2,278.2 818.0,277.1 818.8,276.0 819.6,275.0 820.4,274.0 821.1,272.9 821.9,271.9 822.7,270.7 823.5,269.6 824.3,268.5 825.1,267.4 825.9,266.3 826.6,265.2 827.4,264.2 828.2,263.1 829.0,262.1 829.8,261.0 830.6,259.9 831.4,258.9 832.1,258.0 832.9,257.0 833.7,255.9 834.5,254.7 835.3,253.6 836.1,252.5 836.9,251.5 837.6,250.4 838.4,250.2 839.2,250.2 840.0,250.2"/>
<rect x="858" y="92" width="12" height="12" fill="#059669"/>
<text x="876" y="103" font-family="sans-serif" font-size="12">knock_seen</text>
<polyline fill="none" stroke="#d97706" stroke-width="2" points="80.0,356.0 80.8,356.0 81.6,356.0 82.4,356.0 83.1,356.0 83.9,356.0 84.7,356.0 85.5,356.0 86.3,356.0 87.1,356.0 87.9,356.0 88.6,356.0 89.4,356.0 90.2,356.0 91.0,356.0 91.8,356.0 92.6,356.0 93.4,356.0 94.1,356.0 94.9,356.0 95.7,356.0 96.5,356.0 97.3,356.0 98.1,356.0 98.9,356.0 99.6,356.0 100.4,356.0 101.2,356.0 102.0,356.0 102.8,356.0 103.6,356.0 104.4,356.0 105.1,356.0 105.9,356.0 106.7,356.0 107.5,356.0 108.3,356.0 109.1,356.0 109.9,356.0 110.7,356.0 111.4,356.0 112.2,356.0 113.0,356.0 113.8,356.0 114.6,356.0 115.4,356.0 116.2,356.0 116.9,356.0 117.7,356.0 118.5,356.0 119.3,356.0 120.1,356.0 120.9,356.0 121.7,356.0 122.4,356.0 123.2,356.0 124.0,356.0 124.8,356.0 125.6,356.0 126.4,356.0 127.2,356.0 127.9,356.0 128.7,356.0 129.5,356.0 130.3,356.0 131.1,356.0 131.9,356.0 132.7,356.0 133.4,356.0 134.2,356.0 135.0,356.0 135.8,356.0 136.6,356.0 137.4,356.0 138.2,356.0 138.9,356.0 139.7,356.0 140.5,356.0 141.3,356.0 142.1,356.0 142.9,356.0 143.7,356.0 144.4,356.0 145.2,356.0 146.0,356.0 146.8,356.0 147.6,356.0 148.4,356.0 149.2,356.0 149.9,356.0 150.7,356.0 151.5,356.0 152.3,356.0 153.1,356.0 153.9,356.0 154.7,356.0 155.4,356.0 156.2,356.0 157.0,356.0 157.8,356.0 158.6,356.0 159.4,356.0 160.2,356.0 161.0,356.0 161.7,356.0 162.5,356.0 163.3,356.0 164.1,356.0 164.9,356.0 165.7,356.0 166.5,356.0 167.2,356.0 168.0,356.0 168.8,356.0 169.6,356.0 170.4,356.0 171.2,356.0 172.0,356.0 172.7,356.0 173.5,356.0 174.3,356.0 175.1,356.0 175.9,356.0 176.7,356.0 177.5,356.0 178.2,356.0 179.0,356.0 179.8,356.0 180.6,356.0 181.4,356.0 182.2,356.0 183.0,356.0 183.7,356.0 184.5,356.0 185.3,356.0 186.1,356.0 186.9,356.0 187.7,356.0 188.5,356.0 189.2,356.0 190.0,356.0 190.8,356.0 191.6,356.0 192.4,356.0 193.2,356.0 194.0,356.0 194.7,356.0 195.5,356.0 196.3,356.0 197.1,356.0 197.9,356.0 198.7,356.0 199.5,356.0 200.2,356.0 201.0,356.0 201.8,356.0 202.6,356.0 203.4,356.0 204.2,356.0 205.0,356.0 205.7,356.0 206.5,356.0 207.3,356.0 208.1,356.0 208.9,356.0 209.7,356.0 210.5,356.0 211.3,356.0 212.0,356.0 212.8,356.0 213.6,356.0 214.4,356.0 215.2,356.0 216.0,356.0 216.8,356.0 217.5,356.0 218.3,356.0 219.1,356.0 219.9,356.0 220.7,356.0 221.5,356.0 222.3,356.0 223.0,356.0 223.8,356.0 224.6,356.0 225.4,356.0 226.2,356.0 227.0,356.0 227.8,356.0 228.5,356.0 229.3,356.0 230.1,356.0 230.9,356.0 231.7,356.0 232.5,356.0 233.3,356.0 234.0,356.0 234.8,356.0 235.6,356.0 236.4,356.0 237.2,356.0 238.0,356.0 238.8,356.0 239.5,356.0 240.3,356.0 241.1,356.0 241.9,356.0 242.7,356.0 243.5,356.0 244.3,356.0 245.0,356.0 245.8,356.0 246.6,356.0 247.4,356.0 248.2,353.6 249.0,351.1 249.8,348.0 250.5,344.7 251.3,341.8 252.1,338.8 252.9,335.4 253.7,332.3 254.5,329.4 255.3,326.7 256.0,323.8 256.8,320.8 257.6,317.6 258.4,314.7 259.2,311.6 260.0,308.4 260.8,305.4 261.6,302.4 262.3,299.8 263.1,296.3 263.9,293.5 264.7,290.7 265.5,287.5 266.3,284.1 267.1,280.9 267.8,277.8 268.6,274.8 269.4,272.3 270.2,269.2 271.0,266.1 271.8,263.1 272.6,259.9 273.3,258.1 274.1,258.1 274.9,258.1 275.7,256.7 276.5,253.5 277.3,250.7 278.1,247.6 278.8,244.7 279.6,242.1 280.4,238.8 281.2,235.8 282.0,232.5 282.8,229.4 283.6,226.6 284.3,223.9 285.1,220.8 285.9,217.4 286.7,214.2 287.5,211.2 288.3,207.9 289.1,205.2 289.8,201.9 290.6,198.9 291.4,196.3 292.2,193.2 293.0,190.5 293.8,188.1 294.6,185.0 295.3,181.9 296.1,179.0 296.9,175.9 297.7,173.2 298.5,170.1 299.3,167.7 300.1,164.7 300.8,161.9 301.6,161.6 302.4,161.6 303.2,161.6 304.0,158.7 304.8,155.5 305.6,152.6 306.3,149.9 307.1,147.1 307.9,144.2 308.7,141.1 309.5,138.0 310.3,135.4 311.1,132.4 311.9,129.7 312.6,126.3 313.4,123.7 314.2,120.6 315.0,117.5 315.8,113.9 316.6,111.0 317.4,107.7 318.1,104.5 318.9,101.5 319.7,98.4 320.5,95.9 321.3,92.7 322.1,90.0 322.9,86.8 323.6,83.6 324.4,80.7 325.2,77.2 326.0,74.1 326.8,70.6 327.6,67.4 328.4,64.5 329.1,62.7 329.9,62.7 330.7,62.7 331.5,356.0 332.3,356.0 333.1,356.0 333.9,356.0 334.6,356.0 335.4,356.0 336.2,356.0 337.0,356.0 337.8,356.0 338.6,356.0 339.4,356.0 340.1,356.0 340.9,356.0 341.7,356.0 342.5,356.0 343.3,356.0 344.1,356.0 344.9,356.0 345.6,356.0 346.4,356.0 347.2,356.0 348.0,356.0 348.8,356.0 349.6,356.0 350.4,356.0 351.1,356.0 351.9,356.0 352.7,356.0 353.5,356.0 354.3,356.0 355.1,356.0 355.9,356.0 356.6,356.0 357.4,356.0 358.2,356.0 359.0,356.0 359.8,356.0 360.6,356.0 361.4,356.0 362.2,356.0 362.9,356.0 363.7,356.0 364.5,356.0 365.3,356.0 366.1,356.0 366.9,356.0 367.7,356.0 368.4,356.0 369.2,356.0 370.0,356.0 370.8,356.0 371.6,356.0 372.4,356.0 373.2,356.0 373.9,356.0 374.7,356.0 375.5,356.0 376.3,356.0 377.1,356.0 377.9,356.0 378.7,356.0 379.4,356.0 380.2,356.0 381.0,356.0 381.8,356.0 382.6,356.0 383.4,356.0 384.2,356.0 384.9,356.0 385.7,356.0 386.5,356.0 387.3,356.0 388.1,356.0 388.9,356.0 389.7,356.0 390.4,356.0 391.2,356.0 392.0,356.0 392.8,356.0 393.6,356.0 394.4,356.0 395.2,356.0 395.9,356.0 396.7,356.0 397.5,356.0 398.3,356.0 399.1,356.0 399.9,356.0 400.7,356.0 401.4,356.0 402.2,356.0 403.0,356.0 403.8,356.0 404.6,356.0 405.4,356.0 406.2,356.0 406.9,356.0 407.7,356.0 408.5,356.0 409.3,356.0 410.1,356.0 410.9,356.0 411.7,356.0 412.5,356.0 413.2,356.0 414.0,356.0 414.8,356.0 415.6,356.0 416.4,356.0 417.2,356.0 418.0,356.0 418.7,356.0 419.5,356.0 420.3,356.0 421.1,356.0 421.9,356.0 422.7,356.0 423.5,356.0 424.2,356.0 425.0,356.0 425.8,356.0 426.6,356.0 427.4,356.0 428.2,356.0 429.0,356.0 429.7,356.0 430.5,356.0 431.3,356.0 432.1,356.0 432.9,356.0 433.7,356.0 434.5,356.0 435.2,356.0 436.0,356.0 436.8,356.0 437.6,356.0 438.4,356.0 439.2,356.0 440.0,356.0 440.7,356.0 441.5,356.0 442.3,356.0 443.1,356.0 443.9,356.0 444.7,356.0 445.5,356.0 446.2,356.0 447.0,356.0 447.8,356.0 448.6,356.0 449.4,356.0 450.2,356.0 451.0,356.0 451.7,356.0 452.5,356.0 453.3,356.0 454.1,356.0 454.9,356.0 455.7,356.0 456.5,356.0 457.2,356.0 458.0,356.0 458.8,356.0 459.6,356.0 460.4,356.0 461.2,356.0 462.0,356.0 462.8,356.0 463.5,356.0 464.3,356.0 465.1,356.0 465.9,356.0 466.7,356.0 467.5,356.0 468.3,356.0 469.0,356.0 469.8,356.0 470.6,356.0 471.4,356.0 472.2,356.0 473.0,356.0 473.8,356.0 474.5,356.0 475.3,356.0 476.1,356.0 476.9,356.0 477.7,356.0 478.5,356.0 479.3,356.0 480.0,356.0 480.8,356.0 481.6,356.0 482.4,356.0 483.2,356.0 484.0,356.0 484.8,356.0 485.5,356.0 486.3,356.0 487.1,356.0 487.9,356.0 488.7,356.0 489.5,356.0 490.3,356.0 491.0,356.0 491.8,356.0 492.6,356.0 493.4,356.0 494.2,356.0 495.0,356.0 495.8,356.0 496.5,356.0 497.3,356.0 498.1,356.0 498.9,356.0 499.7,356.0 500.5,354.6 501.3,352.4 502.0,350.4 502.8,348.3 503.6,346.3 504.4,344.2 505.2,342.2 506.0,340.0 506.8,337.9 507.5,335.7 508.3,333.5 509.1,331.5 509.9,329.1 510.7,326.8 511.5,325.0 512.3,323.1 513.1,321.0 513.8,318.7 514.6,316.6 515.4,314.4 516.2,312.3 517.0,310.2 517.8,307.9 518.6,306.0 519.3,303.9 520.1,301.5 520.9,299.3 521.7,297.0 522.5,294.8 523.3,292.9 524.1,290.9 524.8,288.7 525.6,287.0 526.4,287.0 527.2,287.0 528.0,286.6 528.8,284.5 529.6,282.3 530.3,279.8 531.1,277.6 531.9,275.7 532.7,273.4 533.5,271.2 534.3,269.1 535.1,266.8 535.8,264.9 536.6,262.7 537.4,260.5 538.2,258.5 539.0,256.3 539.8,254.1 540.6,252.3 541.3,250.4 542.1,247.9 542.9,245.8 543.7,243.6 544.5,241.3 545.3,239.1 546.1,236.8 546.8,234.2 547.6,232.0 548.4,229.6 549.2,227.4 550.0,225.1 550.8,223.0 551.6,220.8 552.3,218.7 553.1,216.4 553.9,215.9 554.7,215.9 555.5,215.9 556.3,214.3 557.1,211.9 557.8,209.8 558.6,207.7 559.4,205.9 560.2,203.7 561.0,201.1 561.8,198.8 562.6,196.8 563.4,194.7 564.1,192.5 564.9,190.4 565.7,188.2 566.5,186.1 567.3,184.1 568.1,181.9 568.9,179.9 569.6,178.1 570.4,175.8 571.2,173.6 572.0,171.4 572.8,169.4 573.6,167.1 574.4,164.8 575.1,162.4 575.9,160.4 576.7,158.4 577.5,156.4 578.3,154.3 579.1,152.3 579.9,150.2 580.6,148.0 581.4,146.4 582.2,146.4 583.0,146.4 583.8,356.0 584.6,356.0 585.4,356.0 586.1,356.0 586.9,356.0 587.7,356.0 588.5,356.0 589.3,356.0 590.1,356.0 590.9,356.0 591.6,356.0 592.4,356.0 593.2,356.0 594.0,356.0 594.8,356.0 595.6,356.0 596.4,356.0 597.1,356.0 597.9,356.0 598.7,356.0 599.5,356.0 600.3,356.0 601.1,356.0 601.9,356.0 602.6,356.0 603.4,356.0 604.2,356.0 605.0,356.0 605.8,356.0 606.6,356.0 607.4,356.0 608.1,356.0 608.9,356.0 609.7,356.0 610.5,356.0 611.3,356.0 612.1,356.0 612.9,356.0 613.7,356.0 614.4,356.0 615.2,356.0 616.0,356.0 616.8,356.0 617.6,356.0 618.4,356.0 619.2,356.0 619.9,356.0 620.7,356.0 621.5,356.0 622.3,356.0 623.1,356.0 623.9,356.0 624.7,356.0 625.4,356.0 626.2,356.0 627.0,356.0 627.8,356.0 628.6,356.0 629.4,356.0 630.2,356.0 630.9,356.0 631.7,356.0 632.5,356.0 633.3,356.0 634.1,356.0 634.9,356.0 635.7,356.0 636.4,356.0 637.2,356.0 638.0,356.0 638.8,356.0 639.6,356.0 640.4,356.0 641.2,356.0 641.9,356.0 642.7,356.0 643.5,356.0 644.3,356.0 645.1,356.0 645.9,356.0 646.7,356.0 647.4,356.0 648.2,356.0 649.0,356.0 649.8,356.0 650.6,356.0 651.4,356.0 652.2,356.0 652.9,356.0 653.7,356.0 654.5,356.0 655.3,356.0 656.1,356.0 656.9,356.0 657.7,356.0 658.4,356.0 659.2,356.0 660.0,356.0 660.8,356.0 661.6,356.0 662.4,356.0 663.2,356.0 664.0,356.0 664.7,356.0 665.5,356.0 666.3,356.0 667.1,356.0 667.9,356.0 668.7,356.0 669.5,356.0 670.2,356.0 671.0,356.0 671.8,356.0 672.6,356.0 673.4,356.0 674.2,356.0 675.0,356.0 675.7,356.0 676.5,356.0 677.3,356.0 678.1,356.0 678.9,355.9 679.7,355.9 680.5,355.9 681.2,355.8 682.0,355.7 682.8,355.7 683.6,355.6 684.4,355.5 685.2,355.4 686.0,355.4 686.7,355.3 687.5,355.3 688.3,355.2 689.1,355.1 689.9,355.0 690.7,354.9 691.5,354.8 692.2,354.7 693.0,354.6 693.8,354.5 694.6,354.4 695.4,354.3 696.2,354.2 697.0,354.0 697.7,354.0 698.5,354.0 699.3,354.0 700.1,354.0 700.9,354.0 701.7,354.0 702.5,354.0 703.2,354.0 704.0,354.0 704.8,354.0 705.6,353.9 706.4,353.8 707.2,353.8 708.0,353.7 708.7,353.7 709.5,353.6 710.3,353.5 711.1,353.4 711.9,353.3 712.7,353.3 713.5,353.2 714.3,353.1 715.0,353.0 715.8,353.0 716.6,352.9 717.4,352.8 718.2,352.7 719.0,352.7 719.8,352.6 720.5,352.5 721.3,352.4 722.1,352.3 722.9,352.2 723.7,352.2 724.5,352.1 725.3,352.1 726.0,352.1 726.8,352.1 727.6,352.1 728.4,352.1 729.2,352.1 730.0,352.1 730.8,352.1 731.5,352.1 732.3,352.1 733.1,352.1 733.9,352.0 734.7,351.9 735.5,351.8 736.3,351.7 737.0,351.6 737.8,351.6 738.6,351.5 739.4,351.5 740.2,351.4 741.0,351.3 741.8,351.2 742.5,351.1 743.3,351.0 744.1,351.0 744.9,350.9 745.7,350.9 746.5,350.8 747.3,350.8 748.0,350.7 748.8,350.6 749.6,350.5 750.4,350.5 751.2,350.4 752.0,350.3 752.8,350.3 753.5,350.3 754.3,350.3 755.1,356.0 755.9,356.0 756.7,356.0 757.5,356.0 758.3,356.0 759.0,356.0 759.8,356.0 760.6,356.0 761.4,356.0 762.2,356.0 763.0,356.0 763.8,356.0 764.6,355.9 765.3,355.9 766.1,355.5 766.9,355.1 767.7,354.9 768.5,354.9 769.3,354.8 770.1,354.8 770.8,354.8 771.6,354.7 772.4,354.7 773.2,354.4 774.0,354.2 774.8,353.9 775.6,353.9 776.3,353.9 777.1,353.8 777.9,353.8 778.7,353.7 779.5,353.7 780.3,353.5 781.1,353.3 781.8,353.2 782.6,353.2 783.4,353.2 784.2,353.2 785.0,353.2 785.8,353.2 786.6,353.2 787.3,353.2 788.1,353.2 788.9,353.2 789.7,353.2 790.5,353.1 791.3,353.1 792.1,353.1 792.8,353.0 793.6,352.9 794.4,352.7 795.2,352.5 796.0,352.4 796.8,352.4 797.6,352.4 798.3,352.4 799.1,352.3 799.9,352.3 800.7,352.3 801.5,352.0 802.3,351.9 803.1,351.8 803.8,351.8 804.6,351.8 805.4,351.7 806.2,351.7 807.0,351.6 807.8,351.6 808.6,351.5 809.3,351.4 810.1,351.3 810.9,351.3 811.7,351.3 812.5,351.3 813.3,351.3 814.1,351.3 814.9,351.3 815.6,351.3 816.4,351.3 817.2,351.3 818.0,351.3 818.8,351.2 819.6,351.0 820.4,350.9 821.1,350.9 821.9,350.8 822.7,350.7 823.5,350.7 824.3,350.6 825.1,350.6 825.9,350.6 826.6,350.5 827.4,350.4 828.2,350.4 829.0,350.3 829.8,350.2 830.6,350.1 831.4,350.0 832.1,350.0 832.9,349.9 833.7,349.9 834.5,349.8 835.3,349.8 836.1,349.7 836.9,349.7 837.6,349.6 838.4,349.6 839.2,349.6 840.0,349.6"/>
<rect x="858" y="114" width="12" height="12" fill="#d97706"/>
<text x="876" y="125" font-family="sans-serif" font-size="12">knock_rate_drop</text>
</svg>
