<svg xmlns="http://www.w3.org/2000/svg" width="980" height="420" viewBox="0 0 980 420">
<rect width="100%" height="100%" fill="#ffffff"/>
<text x="490.0" y="28" text-anchor="middle" font-family="sans-serif" font-size="18">XDP Counter Deltas</text>
<line x1="80" y1="48" x2="80" y2="340" stroke="#222"/>
<line x1="80" y1="340" x2="956" y2="340" stroke="#222"/>
<text x="18" y="194.0" transform="rotate(-90 18 194.0)" text-anchor="middle" font-family="sans-serif" font-size="12">count</text>
<line x1="80" y1="340.0" x2="956" y2="340.0" stroke="#e5e7eb"/>
<text x="72" y="344.0" text-anchor="end" font-family="monospace" font-size="11">0</text>
<line x1="80" y1="267.0" x2="956" y2="267.0" stroke="#e5e7eb"/>
<text x="72" y="271.0" text-anchor="end" font-family="monospace" font-size="11">4569305</text>
<line x1="80" y1="194.0" x2="956" y2="194.0" stroke="#e5e7eb"/>
<text x="72" y="198.0" text-anchor="end" font-family="monospace" font-size="11">9138610</text>
<line x1="80" y1="121.0" x2="956" y2="121.0" stroke="#e5e7eb"/>
<text x="72" y="125.0" text-anchor="end" font-family="monospace" font-size="11">13707915</text>
<line x1="80" y1="48.0" x2="956" y2="48.0" stroke="#e5e7eb"/>
<text x="72" y="52.0" text-anchor="end" font-family="monospace" font-size="11">18277220</text>
<rect x="85.6" y="48.0" width="23.8" height="292.0" fill="#2563eb"/>
<text x="97.5" y="43.0" text-anchor="middle" font-family="monospace" font-size="10">18277220</text>
<text x="97.5" y="358" text-anchor="end" transform="rotate(-35 97.5 358)" font-family="sans-serif" font-size="11">protected_unauthorized_drop:protected_drop</text>
<rect x="120.6" y="335.3" width="23.8" height="4.7" fill="#2563eb"/>
<text x="132.6" y="330.3" text-anchor="middle" font-family="monospace" font-size="10">294912</text>
<text x="132.6" y="358" text-anchor="end" transform="rotate(-35 132.6 358)" font-family="sans-serif" font-size="11">knock_invalid_user_or_key:knock_seen</text>
<rect x="155.7" y="335.3" width="23.8" height="4.7" fill="#2563eb"/>
<text x="167.6" y="330.3" text-anchor="middle" font-family="monospace" font-size="10">294912</text>
<text x="167.6" y="358" text-anchor="end" transform="rotate(-35 167.6 358)" font-family="sans-serif" font-size="11">knock_invalid_user_or_key:unknown_user</text>
<rect x="190.7" y="60.5" width="23.8" height="279.5" fill="#2563eb"/>
<text x="202.6" y="55.5" text-anchor="middle" font-family="monospace" font-size="10">17497272</text>
<text x="202.6" y="358" text-anchor="end" transform="rotate(-35 202.6 358)" font-family="sans-serif" font-size="11">knock_invalid_user_or_key:knock_rate_drop</text>
<rect x="225.8" y="198.2" width="23.8" height="141.8" fill="#2563eb"/>
<text x="237.7" y="193.2" text-anchor="middle" font-family="monospace" font-size="10">8877163</text>
<text x="237.7" y="358" text-anchor="end" transform="rotate(-35 237.7 358)" font-family="sans-serif" font-size="11">authorized_protected_pass:protected_drop</text>
<rect x="260.8" y="197.1" width="23.8" height="142.9" fill="#2563eb"/>
<text x="272.7" y="192.1" text-anchor="middle" font-family="monospace" font-size="10">8947641</text>
<text x="272.7" y="358" text-anchor="end" transform="rotate(-35 272.7 358)" font-family="sans-serif" font-size="11">authorized_protected_pass:protected_pass</text>
<rect x="295.8" y="340.0" width="23.8" height="0.0" fill="#2563eb"/>
<text x="307.8" y="335.0" text-anchor="middle" font-family="monospace" font-size="10">1155</text>
<text x="307.8" y="358" text-anchor="end" transform="rotate(-35 307.8 358)" font-family="sans-serif" font-size="11">replay_drop:knock_seen</text>
<rect x="330.9" y="340.0" width="23.8" height="0.0" fill="#2563eb"/>
<text x="342.8" y="335.0" text-anchor="middle" font-family="monospace" font-size="10">3</text>
<text x="342.8" y="358" text-anchor="end" transform="rotate(-35 342.8 358)" font-family="sans-serif" font-size="11">replay_drop:knock_valid</text>
<rect x="365.9" y="340.0" width="23.8" height="0.0" fill="#2563eb"/>
<text x="377.8" y="335.0" text-anchor="middle" font-family="monospace" font-size="10">1152</text>
<text x="377.8" y="358" text-anchor="end" transform="rotate(-35 377.8 358)" font-family="sans-serif" font-size="11">replay_drop:replay_drop</text>
<rect x="401.0" y="340.0" width="23.8" height="0.0" fill="#2563eb"/>
<text x="412.9" y="335.0" text-anchor="middle" font-family="monospace" font-size="10">645</text>
<text x="412.9" y="358" text-anchor="end" transform="rotate(-35 412.9 358)" font-family="sans-serif" font-size="11">replay_drop:knock_rate_drop</text>
<rect x="436.0" y="340.0" width="23.8" height="0.0" fill="#2563eb"/>
<text x="447.9" y="335.0" text-anchor="middle" font-family="monospace" font-size="10">1152</text>
<text x="447.9" y="358" text-anchor="end" transform="rotate(-35 447.9 358)" font-family="sans-serif" font-size="11">source_rate_limit:knock_seen</text>
<rect x="471.0" y="340.0" width="23.8" height="0.0" fill="#2563eb"/>
<text x="483.0" y="335.0" text-anchor="middle" font-family="monospace" font-size="10">1152</text>
<text x="483.0" y="358" text-anchor="end" transform="rotate(-35 483.0 358)" font-family="sans-serif" font-size="11">source_rate_limit:knock_valid</text>
<rect x="506.1" y="140.8" width="23.8" height="199.2" fill="#2563eb"/>
<text x="518.0" y="135.8" text-anchor="middle" font-family="monospace" font-size="10">12470784</text>
<text x="518.0" y="358" text-anchor="end" transform="rotate(-35 518.0 358)" font-family="sans-serif" font-size="11">source_rate_limit:knock_rate_drop</text>
<rect x="541.1" y="194.2" width="23.8" height="145.8" fill="#2563eb"/>
<text x="553.0" y="189.2" text-anchor="middle" font-family="monospace" font-size="10">9125881</text>
<text x="553.0" y="358" text-anchor="end" transform="rotate(-35 553.0 358)" font-family="sans-serif" font-size="11">active_session_pressure_32:protected_drop</text>
<rect x="576.2" y="202.1" width="23.8" height="137.9" fill="#2563eb"/>
<text x="588.1" y="197.1" text-anchor="middle" font-family="monospace" font-size="10">8632399</text>
<text x="588.1" y="358" text-anchor="end" transform="rotate(-35 588.1 358)" font-family="sans-serif" font-size="11">active_session_pressure_32:protected_pass</text>
<rect x="611.2" y="239.4" width="23.8" height="100.6" fill="#2563eb"/>
<text x="623.1" y="234.4" text-anchor="middle" font-family="monospace" font-size="10">6298691</text>
<text x="623.1" y="358" text-anchor="end" transform="rotate(-35 623.1 358)" font-family="sans-serif" font-size="11">user_scale_128:knock_seen</text>
<rect x="646.2" y="339.8" width="23.8" height="0.2" fill="#2563eb"/>
<text x="658.2" y="334.8" text-anchor="middle" font-family="monospace" font-size="10">12288</text>
<text x="658.2" y="358" text-anchor="end" transform="rotate(-35 658.2 358)" font-family="sans-serif" font-size="11">user_scale_128:knock_valid</text>
<rect x="681.3" y="340.0" width="23.8" height="0.0" fill="#2563eb"/>
<text x="693.2" y="335.0" text-anchor="middle" font-family="monospace" font-size="10">1329</text>
<text x="693.2" y="358" text-anchor="end" transform="rotate(-35 693.2 358)" font-family="sans-serif" font-size="11">user_scale_128:replay_drop</text>
<rect x="716.3" y="333.7" width="23.8" height="6.3" fill="#2563eb"/>
<text x="728.2" y="328.7" text-anchor="middle" font-family="monospace" font-size="10">397451</text>
<text x="728.2" y="358" text-anchor="end" transform="rotate(-35 728.2 358)" font-family="sans-serif" font-size="11">user_scale_128:knock_rate_drop</text>
<rect x="751.4" y="239.6" width="23.8" height="100.4" fill="#2563eb"/>
<text x="763.3" y="234.6" text-anchor="middle" font-family="monospace" font-size="10">6285074</text>
<text x="763.3" y="358" text-anchor="end" transform="rotate(-35 763.3 358)" font-family="sans-serif" font-size="11">user_scale_128:map_update_fail</text>
<rect x="786.4" y="240.1" width="23.8" height="99.9" fill="#2563eb"/>
<text x="798.3" y="235.1" text-anchor="middle" font-family="monospace" font-size="10">6253869</text>
<text x="798.3" y="358" text-anchor="end" transform="rotate(-35 798.3 358)" font-family="sans-serif" font-size="11">user_scale_1024:knock_seen</text>
<rect x="821.4" y="339.8" width="23.8" height="0.2" fill="#2563eb"/>
<text x="833.4" y="334.8" text-anchor="middle" font-family="monospace" font-size="10">12288</text>
<text x="833.4" y="358" text-anchor="end" transform="rotate(-35 833.4 358)" font-family="sans-serif" font-size="11">user_scale_1024:knock_valid</text>
<rect x="856.5" y="340.0" width="23.8" height="0.0" fill="#2563eb"/>
<text x="868.4" y="335.0" text-anchor="middle" font-family="monospace" font-size="10">1641</text>
<text x="868.4" y="358" text-anchor="end" transform="rotate(-35 868.4 358)" font-family="sans-serif" font-size="11">user_scale_1024:replay_drop</text>
<rect x="891.5" y="332.9" width="23.8" height="7.1" fill="#2563eb"/>
<text x="903.4" y="327.9" text-anchor="middle" font-family="monospace" font-size="10">444417</text>
<text x="903.4" y="358" text-anchor="end" transform="rotate(-35 903.4 358)" font-family="sans-serif" font-size="11">user_scale_1024:knock_rate_drop</text>
<rect x="926.6" y="240.3" width="23.8" height="99.7" fill="#2563eb"/>
<text x="938.5" y="235.3" text-anchor="middle" font-family="monospace" font-size="10">6239940</text>
<text x="938.5" y="358" text-anchor="end" transform="rotate(-35 938.5 358)" font-family="sans-serif" font-size="11">user_scale_1024:map_update_fail</text>
</svg>
